<svg width="8" height="13" viewBox="0 0 8 13" fill="none" xmlns="http://www.w3.org/2000/svg">
<path fill-rule="evenodd" clip-rule="evenodd" d="M0 0.410959C0 0.183992 0.183992 0 0.410958 0H2.05479C2.28176 0 2.46575 0.183992 2.46575 0.410958V2.05479C2.46575 2.28176 2.64974 2.46575 2.87671 2.46575H4.52054C4.74751 2.46575 4.9315 2.64974 4.9315 2.87671V4.52054C4.9315 4.74751 5.1155 4.9315 5.34246 4.9315H6.9863C7.21326 4.9315 7.39725 5.1155 7.39725 5.34246V6.9863C7.39725 7.21326 7.21326 7.39725 6.9863 7.39725H5.34246C5.1155 7.39725 4.9315 7.58125 4.9315 7.80821V9.45205C4.9315 9.67901 4.74751 9.86301 4.52055 9.86301H2.87671C2.64974 9.86301 2.46575 10.047 2.46575 10.274V11.9178C2.46575 12.1448 2.28176 12.3288 2.05479 12.3288H0.410959C0.183992 12.3288 0 12.1448 0 11.9178V9.86301V7.39725V4.9315V2.46575V0.410959Z" fill="#939597"/>
</svg>
