<svg width="22" height="30" viewBox="0 0 22 30" fill="none" xmlns="http://www.w3.org/2000/svg">
<path d="M22 13.058C22 12.9107 21.88 12.7902 21.7333 12.7902H19.7333C19.5867 12.7902 19.4667 12.9107 19.4667 13.058C19.4667 17.7556 15.6767 21.5625 11 21.5625C6.32333 21.5625 2.53333 17.7556 2.53333 13.058C2.53333 12.9107 2.41333 12.7902 2.26667 12.7902H0.266667C0.12 12.7902 0 12.9107 0 13.058C0 18.7065 4.22 23.3672 9.66667 24.0268V27.4554H4.82333C4.36667 27.4554 4 27.9342 4 28.5268V29.7321C4 29.8795 4.09333 30 4.20667 30H17.7933C17.9067 30 18 29.8795 18 29.7321V28.5268C18 27.9342 17.6333 27.4554 17.1767 27.4554H12.2V24.0435C17.71 23.4408 22 18.7533 22 13.058ZM11 18.75C14.13 18.75 16.6667 16.2321 16.6667 13.125V5.625C16.6667 2.51786 14.13 0 11 0C7.87 0 5.33333 2.51786 5.33333 5.625V13.125C5.33333 16.2321 7.87 18.75 11 18.75ZM7.86667 5.625C7.86667 3.9308 9.26333 2.54464 11 2.54464C12.7367 2.54464 14.1333 3.9308 14.1333 5.625V13.125C14.1333 14.8192 12.7367 16.2054 11 16.2054C9.26333 16.2054 7.86667 14.8192 7.86667 13.125V5.625Z" fill="#403D37"/>
</svg>
