<svg width="36" height="36" viewBox="0 0 36 36" fill="none" xmlns="http://www.w3.org/2000/svg">
<path d="M17.9997 0C13.7589 0 10.2813 3.36072 9.93075 7.63904C9.33036 7.4954 8.71605 7.42272 8.0997 7.4224C3.627 7.4224 0 11.1618 0 15.7737C0 19.2071 2.0115 22.1562 4.8852 23.439C4.15948 24.7159 3.77773 26.1694 3.7794 27.6493C3.7794 32.261 7.40565 36 11.8797 36C14.3737 36 16.6035 34.8368 18.0892 33.0093C19.5751 34.8368 21.8052 36 24.299 36C28.7735 36 32.3996 32.2609 32.3996 27.6493C32.3996 26.1464 32.0126 24.7375 31.3386 23.5193C34.0924 22.1857 36 19.3017 36 15.958C36 11.3463 32.3738 7.60673 27.9003 7.60673C27.2748 7.60673 26.6668 7.6825 26.0821 7.82074C25.8168 3.45628 22.3005 0 17.9997 0ZM9.4242 10.6209H25.3128C26.4315 10.6209 27.3408 11.5565 27.3408 12.7065V24.5305C27.3408 25.6806 26.4315 26.6153 25.3128 26.6153H19.9L9.04005 32.1035L10.6912 26.6153H9.4242C8.3055 26.6153 7.3959 25.6806 7.3959 24.5305V12.7065C7.3959 11.5563 8.3055 10.6209 9.4242 10.6209Z" fill="#403D37"/>
</svg>
