<svg width="30" height="28" viewBox="0 0 30 28" fill="none" xmlns="http://www.w3.org/2000/svg">
<path d="M29.889 25.9479L23.8621 11.2782C23.7508 11.0073 23.562 10.7757 23.3195 10.6127C23.0771 10.4497 22.792 10.3627 22.5003 10.3627C22.2087 10.3627 21.9235 10.4497 21.6811 10.6127C21.4387 10.7757 21.2499 11.0073 21.1386 11.2782L15.1116 25.9479C15.0367 26.1278 14.9978 26.3208 14.9973 26.5158C14.9969 26.7109 15.0347 26.9041 15.1088 27.0843C15.1828 27.2646 15.2916 27.4284 15.4288 27.5663C15.566 27.7042 15.729 27.8136 15.9084 27.888C16.0878 27.9624 16.2801 28.0005 16.4741 28C16.6682 27.9995 16.8603 27.9605 17.0393 27.8852C17.2184 27.8099 17.3808 27.6999 17.5174 27.5613C17.654 27.4227 17.7619 27.2584 17.8351 27.0777L19.0626 24.0906H25.938L27.1655 27.0777C27.2768 27.3488 27.4657 27.5805 27.7081 27.7436C27.9506 27.9066 28.2359 27.9936 28.5276 27.9936C28.7697 27.9934 29.008 27.9334 29.2215 27.8186C29.435 27.7039 29.617 27.5381 29.7516 27.3359C29.8861 27.1336 29.969 26.9012 29.9928 26.6591C30.0167 26.417 29.9808 26.1727 29.8884 25.9479H29.889ZM20.2794 21.1298L22.5007 15.7228L24.7219 21.1298H20.2794ZM15.7933 19.8458C16.0222 19.5281 16.1163 19.1322 16.0549 18.7448C15.9935 18.3575 15.7816 18.0105 15.4659 17.78C15.4525 17.7699 14.4614 17.031 13.0223 15.4429C15.6775 11.8307 17.1815 7.72112 17.7949 5.78714H19.9559C20.3467 5.78714 20.7214 5.63116 20.9977 5.35353C21.274 5.07589 21.4292 4.69934 21.4292 4.30671C21.4292 3.91407 21.274 3.53752 20.9977 3.25988C20.7214 2.98225 20.3467 2.82628 19.9559 2.82628H12.1879V1.48043C12.1879 1.0878 12.0326 0.711242 11.7564 0.433608C11.4801 0.155973 11.1053 0 10.7146 0C10.3239 0 9.94914 0.155973 9.67285 0.433608C9.39656 0.711242 9.24134 1.0878 9.24134 1.48043V2.82628H1.47326C1.08253 2.82628 0.707796 2.98225 0.431507 3.25988C0.155218 3.53752 0 3.91407 0 4.30671C0 4.69934 0.155218 5.07589 0.431507 5.35353C0.707796 5.63116 1.08253 5.78714 1.47326 5.78714H14.6824C14.0448 7.60066 12.8709 10.464 11.0802 13.0789C8.97683 10.2742 8.19533 8.45932 8.1893 8.44451C8.03532 8.08691 7.74724 7.80473 7.38756 7.65917C7.02788 7.51362 6.62559 7.51642 6.26795 7.66697C5.91031 7.81753 5.62615 8.10369 5.47712 8.4634C5.32808 8.82312 5.32617 9.22737 5.47181 9.58848C5.51065 9.68134 6.44617 11.8919 9.01165 15.2363C9.07326 15.3164 9.1342 15.3945 9.19514 15.4725C6.56738 18.4569 3.98918 20.3081 2.91035 20.9057C2.56731 21.0937 2.31264 21.411 2.20238 21.7877C2.09211 22.1644 2.13528 22.5697 2.32239 22.9144C2.5095 23.2591 2.82522 23.515 3.20009 23.6258C3.57496 23.7366 3.97829 23.6932 4.32133 23.5052C4.46598 23.4258 7.57589 21.6957 11.1271 17.7457C12.6352 19.366 13.6718 20.1305 13.7341 20.1749C13.8908 20.2893 14.0684 20.3715 14.2568 20.4168C14.4451 20.4621 14.6405 20.4697 14.8318 20.4391C15.023 20.4085 15.2064 20.3402 15.3714 20.2383C15.5364 20.1364 15.6798 20.0028 15.7933 19.8452V19.8458Z" fill="#403D37"/>
</svg>
