<svg width="25" height="26" viewBox="0 0 25 26" fill="none" xmlns="http://www.w3.org/2000/svg">
<path fill-rule="evenodd" clip-rule="evenodd" d="M6.94444 5.77778C6.94444 4.24542 7.52976 2.77582 8.57163 1.69227C9.6135 0.608728 11.0266 0 12.5 0C13.9734 0 15.3865 0.608728 16.4284 1.69227C17.4702 2.77582 18.0556 4.24542 18.0556 5.77778C18.0556 7.31014 17.4702 8.77974 16.4284 9.86328C15.3865 10.9468 13.9734 11.5556 12.5 11.5556C11.0266 11.5556 9.6135 10.9468 8.57163 9.86328C7.52976 8.77974 6.94444 7.31014 6.94444 5.77778ZM6.94444 14.4444C5.10266 14.4444 3.33632 15.2054 2.03398 16.5598C0.731645 17.9142 0 19.7512 0 21.6667C0 22.8159 0.438987 23.9181 1.22039 24.7308C2.00179 25.5435 3.0616 26 4.16667 26H20.8333C21.9384 26 22.9982 25.5435 23.7796 24.7308C24.561 23.9181 25 22.8159 25 21.6667C25 19.7512 24.2684 17.9142 22.966 16.5598C21.6637 15.2054 19.8973 14.4444 18.0556 14.4444H6.94444Z" fill="#403D37"/>
</svg>
