<svg width="25" height="28" viewBox="0 0 25 28" fill="none" xmlns="http://www.w3.org/2000/svg">
<g clip-path="url(#clip0_3335_7577)">
<path d="M9.5 0C7.90927 0.00185261 6.38422 0.634588 5.25941 1.75941C4.13459 2.88422 3.50185 4.40927 3.5 6H5.5C5.5 4.93913 5.92143 3.92172 6.67157 3.17157C7.42172 2.42143 8.43913 2 9.5 2C10.5609 2 11.5783 2.42143 12.3284 3.17157C13.0786 3.92172 13.5 4.93913 13.5 6H15.5C15.4981 4.40927 14.8654 2.88422 13.7406 1.75941C12.6158 0.634588 11.0907 0.00185261 9.5 0Z" fill="#403D37"/>
<path d="M17.4998 28H13.0596C12.0563 27.9997 11.0897 27.6225 10.3515 26.943L1.15121 18.477C0.936401 18.2806 0.76699 18.0398 0.654779 17.7713C0.542569 17.5027 0.490259 17.2129 0.501492 16.9221C0.512725 16.6313 0.587233 16.3464 0.719823 16.0874C0.852413 15.8283 1.0399 15.6012 1.26922 15.422C1.66208 15.1342 2.14371 14.9938 2.62971 15.0254C3.1157 15.057 3.57507 15.2587 3.92731 15.595L7.49944 18.857V6C7.49944 5.46957 7.71016 4.96086 8.08524 4.58579C8.46033 4.21071 8.96905 4 9.49951 4C10.03 4 10.5387 4.21071 10.9138 4.58579C11.2889 4.96086 11.4996 5.46957 11.4996 6V13C11.4996 12.4696 11.7103 11.9609 12.0854 11.5858C12.4605 11.2107 12.9692 11 13.4996 11C14.0301 11 14.5388 11.2107 14.9139 11.5858C15.289 11.9609 15.4997 12.4696 15.4997 13V14C15.4997 13.4696 15.7104 12.9609 16.0855 12.5858C16.4606 12.2107 16.9693 12 17.4998 12C18.0302 12 18.539 12.2107 18.9141 12.5858C19.2891 12.9609 19.4999 13.4696 19.4999 14V15C19.4999 14.4696 19.7106 13.9609 20.0857 13.5858C20.4608 13.2107 20.9695 13 21.4999 13C22.0304 13 22.5391 13.2107 22.9142 13.5858C23.2893 13.9609 23.5 14.4696 23.5 15V22C23.5 23.5913 22.8678 25.1174 21.7426 26.2426C20.6173 27.3679 19.0911 28 17.4998 28Z" fill="#403D37"/>
</g>
<defs>
<clipPath id="clip0_3335_7577">
<rect width="24" height="28" fill="white" transform="translate(0.25)"/>
</clipPath>
</defs>
</svg>
