<svg width="31" height="20" viewBox="0 0 31 20" fill="none" xmlns="http://www.w3.org/2000/svg">
<path d="M24.1111 7.76741e-09C25.429 -7.10362e-05 26.6971 0.487209 27.6559 1.36214C28.6147 2.23707 29.1919 3.43351 29.2692 4.70667L29.2778 5V5.14333L29.3673 5.175C29.8094 5.34431 30.1946 5.62841 30.4806 5.99599C30.7665 6.36357 30.9421 6.80038 30.9879 7.25833L31 7.5V12.5C31.0001 13.0013 30.8445 13.491 30.5533 13.9056C30.2622 14.3202 29.849 14.6405 29.3673 14.825L29.2778 14.855V15C29.2779 16.2754 28.7743 17.5025 27.8702 18.4304C26.9661 19.3583 25.7298 19.9168 24.4142 19.9917L24.1111 20H5.16667C3.8488 20.0001 2.58072 19.5128 1.62188 18.6379C0.663044 17.7629 0.0859259 16.5665 0.00861132 15.2933L8.02633e-09 15V5C-7.34041e-05 3.72465 0.503449 2.49748 1.40754 1.56957C2.31164 0.641655 3.54796 0.0831541 4.86356 0.00833353L5.16667 7.76741e-09H24.1111ZM6.88889 5C6.43213 5 5.99407 5.17559 5.67109 5.48816C5.34811 5.80072 5.16667 6.22464 5.16667 6.66667V13.3333L5.17872 13.5283C5.23057 13.9502 5.4469 14.3369 5.78351 14.6096C6.12012 14.8822 6.55161 15.0202 6.98982 14.9953C7.42803 14.9704 7.83987 14.7845 8.14121 14.4756C8.44254 14.1667 8.61062 13.7581 8.61111 13.3333V6.66667L8.59906 6.47167C8.5497 6.06625 8.34831 5.69246 8.03308 5.42119C7.71786 5.14993 7.31072 5.00005 6.88889 5Z" fill="#403D37"/>
</svg>
