<svg width="21" height="26" viewBox="0 0 21 26" fill="none" xmlns="http://www.w3.org/2000/svg">
<path d="M10.5 0C4.9875 0 0 4.25461 0 10.8347C0 15.0365 3.21563 19.9781 9.63375 25.673C10.1325 26.109 10.8806 26.109 11.3794 25.673C17.7844 19.9781 21 15.0365 21 10.8347C21 4.25461 16.0125 0 10.5 0ZM10.5 13.2131C9.05625 13.2131 7.875 12.0239 7.875 10.5704C7.875 9.11701 9.05625 7.92784 10.5 7.92784C11.9438 7.92784 13.125 9.11701 13.125 10.5704C13.125 12.0239 11.9438 13.2131 10.5 13.2131Z" fill="#403D37"/>
</svg>
