<svg width="20" height="28" viewBox="0 0 20 28" fill="none" xmlns="http://www.w3.org/2000/svg">
<path d="M10 28C9.21429 28 8.54191 27.7261 7.98286 27.1782C7.42381 26.6303 7.14381 25.9709 7.14286 25.2C7.14286 24.71 7.27381 24.255 7.53571 23.835C7.79762 23.415 8.14286 23.0767 8.57143 22.82V19.6H4.28571C3.5 19.6 2.82762 19.3261 2.26857 18.7782C1.70952 18.2303 1.42952 17.5709 1.42857 16.8V13.58C1 13.37 0.654762 13.055 0.392857 12.635C0.130953 12.215 0 11.7367 0 11.2C0 10.43 0.28 9.7706 0.84 9.2218C1.4 8.673 2.07238 8.39907 2.85714 8.4C3.6419 8.40093 4.31476 8.67533 4.87571 9.2232C5.43667 9.77107 5.71619 10.43 5.71429 11.2C5.71429 11.7367 5.58333 12.2033 5.32143 12.6C5.05952 12.9967 4.71429 13.3233 4.28571 13.58V16.8H8.57143V5.6H5.71429L10 0L14.2857 5.6H11.4286V16.8H15.7143V14H14.2857V8.4H20V14H18.5714V16.8C18.5714 17.57 18.2919 18.2294 17.7329 18.7782C17.1738 19.327 16.501 19.6009 15.7143 19.6H11.4286V22.82C11.881 23.0533 12.2324 23.38 12.4829 23.8C12.7333 24.22 12.8581 24.6867 12.8571 25.2C12.8571 25.97 12.5776 26.6294 12.0186 27.1782C11.4595 27.727 10.7867 28.0009 10 28Z" fill="#403D37"/>
</svg>
