<svg width="34" height="18" viewBox="0 0 34 18" fill="none" xmlns="http://www.w3.org/2000/svg">
<path d="M31.75 2.33325H28.4167C27.5326 2.33325 26.6848 2.68444 26.0596 3.30956C25.4345 3.93468 25.0833 4.78253 25.0833 5.66659V12.3333C25.0833 13.2173 25.4345 14.0652 26.0596 14.6903C26.6848 15.3154 27.5326 15.6666 28.4167 15.6666H31.75V8.99992H30.0833M8.41667 2.33325H3.41667C2.97464 2.33325 2.55072 2.50885 2.23816 2.82141C1.92559 3.13397 1.75 3.55789 1.75 3.99992V7.33325C1.75 7.77528 1.92559 8.1992 2.23816 8.51176C2.55072 8.82432 2.97464 8.99992 3.41667 8.99992H6.75C7.19203 8.99992 7.61595 9.17551 7.92851 9.48807C8.24107 9.80063 8.41667 10.2246 8.41667 10.6666V13.9999C8.41667 14.4419 8.24107 14.8659 7.92851 15.1784C7.61595 15.491 7.19203 15.6666 6.75 15.6666H1.75M13.4167 2.33325L15.9167 15.6666H17.5833L20.0833 2.33325" stroke="#403D37" stroke-width="3" stroke-linecap="round" stroke-linejoin="round"/>
</svg>
