<svg width="12" height="12" viewBox="0 0 12 12" fill="none" xmlns="http://www.w3.org/2000/svg">
<path fill-rule="evenodd" clip-rule="evenodd" d="M2.38343 0.410959C2.38343 0.183992 2.56743 0 2.79439 0H4.84919H7.31494H9.53427H9.78069H11.5891C11.816 0 12 0.183993 12 0.410959V2.38357V2.46575V4.84932V7.31507V9.36986C12 9.59683 11.816 9.78082 11.5891 9.78082H9.94523C9.71826 9.78082 9.53427 9.59683 9.53427 9.36986V7.31507V5.26028C9.53427 5.03331 9.35028 4.84932 9.12331 4.84932H7.64385C7.41688 4.84932 7.23289 5.03331 7.23289 5.26028V6.82193C7.23289 7.04889 7.04889 7.23289 6.82193 7.23289H5.26014C5.03318 7.23289 4.84919 7.41688 4.84919 7.64384V9.20546C4.84919 9.43243 4.66519 9.61642 4.43823 9.61642H2.87671C2.64974 9.61642 2.46575 9.80041 2.46575 10.0274V11.589C2.46575 11.816 2.28176 12 2.05479 12H0.410959C0.183992 12 0 11.816 0 11.589V9.94519C0 9.71823 0.183993 9.53424 0.410959 9.53424H1.97248C2.19944 9.53424 2.38343 9.35024 2.38343 9.12328V7.56163C2.38343 7.33466 2.56743 7.15067 2.79439 7.15067H4.35618C4.58314 7.15067 4.76713 6.96668 4.76713 6.73971V5.17809C4.76713 4.95113 4.95113 4.76713 5.17809 4.76713H6.73961C6.96658 4.76713 7.15057 4.58314 7.15057 4.35618V2.87671C7.15057 2.64974 6.96658 2.46575 6.73961 2.46575H4.84919H2.79439C2.56743 2.46575 2.38343 2.28176 2.38343 2.05479V0.410959Z" fill="#BEBCBF"/>
</svg>
