<svg width="12" height="13" viewBox="0 0 12 13" fill="none" xmlns="http://www.w3.org/2000/svg">
<path fill-rule="evenodd" clip-rule="evenodd" d="M2.38343 0.910959C2.38343 0.683992 2.56743 0.5 2.79439 0.5H4.84919H7.31494H9.53427H9.78069H11.5891C11.816 0.5 12 0.683993 12 0.910959V2.88357V2.96575V5.34932V7.81507V9.86986C12 10.0968 11.816 10.2808 11.5891 10.2808H9.94523C9.71826 10.2808 9.53427 10.0968 9.53427 9.86986V7.81507V5.76028C9.53427 5.53331 9.35028 5.34932 9.12331 5.34932H7.64385C7.41688 5.34932 7.23289 5.53331 7.23289 5.76028V7.32193C7.23289 7.54889 7.04889 7.73289 6.82193 7.73289H5.26014C5.03318 7.73289 4.84919 7.91688 4.84919 8.14384V9.70546C4.84919 9.93243 4.66519 10.1164 4.43823 10.1164H2.87671C2.64974 10.1164 2.46575 10.3004 2.46575 10.5274V12.089C2.46575 12.316 2.28176 12.5 2.05479 12.5H0.410959C0.183992 12.5 0 12.316 0 12.089V10.4452C0 10.2182 0.183993 10.0342 0.410959 10.0342H1.97248C2.19944 10.0342 2.38343 9.85024 2.38343 9.62328V8.06163C2.38343 7.83466 2.56743 7.65067 2.79439 7.65067H4.35618C4.58314 7.65067 4.76713 7.46668 4.76713 7.23971V5.67809C4.76713 5.45113 4.95113 5.26713 5.17809 5.26713H6.73961C6.96658 5.26713 7.15057 5.08314 7.15057 4.85618V3.37671C7.15057 3.14974 6.96658 2.96575 6.73961 2.96575H4.84919H2.79439C2.56743 2.96575 2.38343 2.78176 2.38343 2.55479V0.910959Z" fill="#FF7120"/>
</svg>
