<svg width="58" height="58" viewBox="0 0 58 58" fill="none" xmlns="http://www.w3.org/2000/svg">
<g clip-path="url(#clip0_4082_5150)">
<path d="M57.3018 3.75926H54.9389C54.7539 3.75855 54.5768 3.68477 54.446 3.554C54.3152 3.42322 54.2414 3.24605 54.2407 3.06111V0.698148C54.24 0.513206 54.1662 0.33604 54.0355 0.205264C53.9047 0.0744892 53.7275 0.000707246 53.5426 0H35.0685C34.8836 0.000707246 34.7064 0.0744892 34.5756 0.205264C34.4449 0.33604 34.3711 0.513206 34.3704 0.698148V4.13519C34.3711 4.32013 34.4449 4.49729 34.5756 4.62807C34.7064 4.75884 34.8836 4.83263 35.0685 4.83333H52.4685C52.6535 4.83404 52.8306 4.90782 52.9614 5.0386C53.0922 5.16937 53.166 5.34654 53.1667 5.53148V22.9315C53.1674 23.1164 53.2412 23.2936 53.3719 23.4244C53.5027 23.5551 53.6799 23.6289 53.8648 23.6296H57.3018C57.4868 23.6289 57.664 23.5551 57.7947 23.4244C57.9255 23.2936 57.9993 23.1164 58 22.9315V4.45741C57.9993 4.27246 57.9255 4.0953 57.7947 3.96452C57.664 3.83375 57.4868 3.75997 57.3018 3.75926ZM3.75926 0.698148V3.06111C3.75855 3.24605 3.68477 3.42322 3.554 3.554C3.42322 3.68477 3.24605 3.75855 3.06111 3.75926H0.698148C0.513206 3.75997 0.33604 3.83375 0.205264 3.96452C0.0744892 4.0953 0.000707245 4.27246 0 4.45741V22.9315C0.000707245 23.1164 0.0744892 23.2936 0.205264 23.4244C0.33604 23.5551 0.513206 23.6289 0.698148 23.6296H4.13519C4.32013 23.6289 4.49729 23.5551 4.62807 23.4244C4.75884 23.2936 4.83263 23.1164 4.83333 22.9315V5.53148C4.83404 5.34654 4.90782 5.16937 5.0386 5.0386C5.16937 4.90782 5.34654 4.83404 5.53148 4.83333H22.9315C23.1164 4.83263 23.2936 4.75884 23.4244 4.62807C23.5551 4.49729 23.6289 4.32013 23.6296 4.13519V0.698148C23.6289 0.513206 23.5551 0.33604 23.4244 0.205264C23.2936 0.0744892 23.1164 0.000707246 22.9315 0H4.45741C4.27246 0.000707246 4.0953 0.0744892 3.96452 0.205264C3.83375 0.33604 3.75997 0.513206 3.75926 0.698148ZM53.1667 35.0685V52.4685C53.166 52.6535 53.0922 52.8306 52.9614 52.9614C52.8306 53.0922 52.6535 53.166 52.4685 53.1667H35.0685C34.8836 53.1674 34.7064 53.2412 34.5756 53.3719C34.4449 53.5027 34.3711 53.6799 34.3704 53.8648V57.3019C34.3711 57.4868 34.4449 57.664 34.5756 57.7947C34.7064 57.9255 34.8836 57.9993 35.0685 58H53.5426C53.7275 57.9993 53.9047 57.9255 54.0355 57.7947C54.1662 57.664 54.24 57.4868 54.2407 57.3019V54.9389C54.2414 54.754 54.3152 54.5768 54.446 54.446C54.5768 54.3152 54.7539 54.2415 54.9389 54.2407H57.3018C57.4868 54.24 57.664 54.1663 57.7947 54.0355C57.9255 53.9047 57.9993 53.7275 58 53.5426V35.0685C57.9993 34.8836 57.9255 34.7064 57.7947 34.5756C57.664 34.4449 57.4868 34.3711 57.3018 34.3704H53.8648C53.6799 34.3711 53.5027 34.4449 53.3719 34.5756C53.2412 34.7064 53.1674 34.8836 53.1667 35.0685ZM4.83333 52.4685V35.0148C4.82982 34.8427 4.75896 34.6788 4.63596 34.5583C4.51297 34.4378 4.34764 34.3703 4.17546 34.3704H0.657871C0.483392 34.3704 0.31606 34.4397 0.192686 34.5631C0.0693111 34.6864 0 34.8538 0 35.0282V53.556C0.000707245 53.741 0.0744892 53.9181 0.205264 54.0489C0.33604 54.1797 0.513206 54.2535 0.698148 54.2542H3.06111C3.24605 54.2549 3.42322 54.3287 3.554 54.4594C3.68477 54.5902 3.75855 54.7674 3.75926 54.9523V57.3153C3.75997 57.5002 3.83375 57.6774 3.96452 57.8082C4.0953 57.9389 4.27246 58.0127 4.45741 58.0134H22.9315C23.1164 58.0127 23.2936 57.9389 23.4244 57.8082C23.5551 57.6774 23.6289 57.5002 23.6296 57.3153V53.8648C23.6289 53.6799 23.5551 53.5027 23.4244 53.3719C23.2936 53.2412 23.1164 53.1674 22.9315 53.1667H5.53148C5.34654 53.166 5.16937 53.0922 5.0386 52.9614C4.90782 52.8306 4.83404 52.6535 4.83333 52.4685Z" fill="url(#paint0_linear_4082_5150)"/>
<path d="M37.2584 30.1009V27.6306C37.2575 27.3923 40.2275 25.5508 40.7362 25.042C40.796 24.982 40.8434 24.9108 40.8756 24.8325C40.9079 24.7542 40.9244 24.6703 40.9242 24.5856V18.8742C40.9235 18.7035 40.8553 18.54 40.7346 18.4193C40.6139 18.2986 40.4504 18.2304 40.2797 18.2297H37.8094C37.6387 18.229 37.4752 18.1609 37.3545 18.0402C37.2338 17.9195 37.1656 17.756 37.1649 17.5853V15.1149C37.1642 14.9442 37.0961 14.7807 36.9754 14.66C36.8547 14.5393 36.6912 14.4712 36.5205 14.4705H20.4038C20.2331 14.4712 20.0696 14.5393 19.9489 14.66C19.8282 14.7807 19.7601 14.9442 19.7594 15.1149V17.5853C19.7587 17.756 19.6905 17.9195 19.5698 18.0402C19.4491 18.1609 19.2856 18.229 19.1149 18.2297H16.6446C16.4739 18.2304 16.3103 18.2986 16.1896 18.4193C16.0689 18.54 16.0008 18.7035 16.0001 18.8742V39.1258C16.0008 39.2965 16.0689 39.46 16.1896 39.5807C16.3103 39.7014 16.4739 39.7696 16.6446 39.7703H19.1149C19.2856 39.771 19.4491 39.8391 19.5698 39.9598C19.6905 40.0805 19.7587 40.244 19.7594 40.4147V42.8851C19.7601 43.0558 19.8282 43.2193 19.9489 43.34C20.0696 43.4607 20.2331 43.5288 20.4038 43.5295H34.5733C34.658 43.5297 34.7419 43.5132 34.8202 43.481C34.8985 43.4487 34.9697 43.4014 35.0297 43.3416L40.8136 37.5577C40.8734 37.4977 40.9208 37.4265 40.953 37.3482C40.9853 37.2698 41.0018 37.1859 41.0016 37.1012V31.3898C41.0009 31.2191 40.9328 31.0556 40.812 30.9349C40.6913 30.8142 40.5278 30.7461 40.3571 30.7454H37.8868C37.7189 30.7405 37.5595 30.6705 37.4422 30.5503C37.325 30.43 37.2591 30.2689 37.2584 30.1009ZM21.2121 18.7131H35.7122C35.8829 18.7138 36.0464 18.7819 36.1671 18.9026C36.2879 19.0233 36.356 19.1868 36.3567 19.3575V26.1295C36.356 26.3002 36.2879 26.4637 36.1671 26.5844C36.0464 26.7051 35.8829 26.7733 35.7122 26.774H21.2121C21.0414 26.7733 20.8778 26.7051 20.7571 26.5844C20.6364 26.4637 20.5683 26.3002 20.5676 26.1295V19.3575C20.5683 19.1868 20.6364 19.0233 20.7571 18.9026C20.8778 18.7819 21.0414 18.7138 21.2121 18.7131ZM36.0125 39.5206H20.9946C20.8239 39.5198 20.6603 39.4517 20.5396 39.331C20.4189 39.2103 20.3508 39.0468 20.3501 38.8761V31.6664C20.3508 31.4957 20.4189 31.3322 20.5396 31.2115C20.6603 31.0908 20.8239 31.0226 20.9946 31.0219H36.0125C36.1832 31.0226 36.3467 31.0908 36.4674 31.2115C36.5881 31.3322 36.6562 31.4957 36.657 31.6664V38.8761C36.6562 39.0468 36.5881 39.2103 36.4674 39.331C36.3467 39.4517 36.1832 39.5198 36.0125 39.5206Z" fill="url(#paint1_linear_4082_5150)"/>
</g>
<defs>
<linearGradient id="paint0_linear_4082_5150" x1="0" y1="58.0134" x2="59.9186" y2="55.9591" gradientUnits="userSpaceOnUse">
<stop stop-color="#3050FB"/>
<stop offset="0.5" stop-color="#41FFC2"/>
<stop offset="1" stop-color="#2EDCF9"/>
</linearGradient>
<linearGradient id="paint1_linear_4082_5150" x1="0.00146339" y1="57.5" x2="58.774" y2="56.1562" gradientUnits="userSpaceOnUse">
<stop stop-color="#3050FB"/>
<stop offset="0.5" stop-color="#41FFC2"/>
<stop offset="1" stop-color="#2EDCF9"/>
</linearGradient>
<clipPath id="clip0_4082_5150">
<rect width="58" height="58" fill="white"/>
</clipPath>
</defs>
</svg>
