<svg width="56" height="56" viewBox="0 0 56 56" fill="none" xmlns="http://www.w3.org/2000/svg">
<rect width="56" height="56" rx="5" fill="#FF7120"/>
<path fill-rule="evenodd" clip-rule="evenodd" d="M23.7547 3H7.48113H5.35849C4.05594 3 3 4.05594 3 5.35849V7.48113V23.7547H4.88679V7.48113C4.88679 6.04833 6.04833 4.88679 7.48113 4.88679H23.7547V3ZM32.0094 4.88679V3H48.5189H50.6415C51.9441 3 53 4.05594 53 5.35849V7.48113V23.7547H51.1132V7.48113C51.1132 6.04833 49.9517 4.88679 48.5189 4.88679H32.0094ZM32.0094 51.1132H48.5189C49.9517 51.1132 51.1132 49.9517 51.1132 48.5189V32.0094H53V48.5189V50.6415C53 51.9441 51.9441 53 50.6415 53H48.5189H32.0094V51.1132ZM4.88679 32.0094V48.5189C4.88679 49.9517 6.04833 51.1132 7.48113 51.1132H23.7547V53H7.48113H5.35849C4.05594 53 3 51.9441 3 50.6415V48.5189V32.0094H4.88679Z" fill="#FAF8F2"/>
<path d="M16 13H30.8981C36.6115 13 40.0064 15.8431 40.0064 20.514C40.0064 23.479 37.8949 26.1597 34.2516 26.6877L34.3344 26.7689C38.5159 27.2563 41 30.2619 41 33.8768C41 39.1162 36.8599 42 30.8981 42H16V13ZM17.5737 26.1597H30.8981C35.328 26.1597 38.1847 23.9664 38.1847 20.1891C38.1847 16.4118 35.2866 14.5434 30.6497 14.5434H17.5737V26.1597ZM17.5737 40.4566H30.8981C35.8249 40.4566 39.1783 38.2633 39.1783 33.8768C39.1783 29.7745 35.8663 27.7031 30.8981 27.7031H17.5737V40.4566Z" fill="#FAF8F2"/>
</svg>
