<svg width="110" height="142" viewBox="0 0 110 142" fill="none" xmlns="http://www.w3.org/2000/svg">
<path d="M63.5798 85.9863V75.9071C63.5798 71.9329 60.3466 68.6997 56.3725 68.6997C52.3983 68.6997 49.1651 71.9329 49.1651 75.9071V85.0073C49.1651 95.9738 45.125 106.503 37.7886 114.654L27.6735 125.893C26.8236 126.838 26.9003 128.292 27.8446 129.142C28.7886 129.992 30.243 129.915 31.0931 128.971L41.2082 117.732C49.3059 108.734 53.7656 97.1123 53.7656 85.0073V75.9071C53.7656 74.4696 54.935 73.3001 56.3725 73.3001C57.81 73.3001 58.9794 74.4696 58.9794 75.9071V85.9863C58.9794 99.4818 53.98 112.413 44.9018 122.399L35.0418 133.245C34.1874 134.185 34.2567 135.64 35.1967 136.495C35.6374 136.896 36.191 137.093 36.7431 137.093C37.3687 137.093 37.9919 136.839 38.4458 136.34L48.3055 125.494C58.1553 114.659 63.5798 100.629 63.5798 85.9863Z" fill="#FF7120"/>
<path d="M73.3947 75.9071C73.3947 66.5213 65.7589 58.8855 56.3731 58.8855C46.9873 58.8855 39.3515 66.5213 39.3515 75.9071V85.0074C39.3515 93.5455 36.206 101.743 30.4944 108.089L23.3033 116.079C22.4535 117.023 22.5302 118.478 23.4745 119.328C24.4188 120.178 25.8728 120.1 26.723 119.157L33.9141 111.166C40.3872 103.974 43.9522 94.6839 43.9522 85.0074V75.9071C43.9522 69.058 49.5243 63.4859 56.3734 63.4859C63.2225 63.4859 68.7946 69.058 68.7946 75.9071V85.9863C68.7946 101.928 62.8888 117.205 52.1646 129.001L43.8455 138.152C42.9907 139.092 43.0601 140.547 44.0001 141.402C44.4408 141.803 44.9944 142 45.5464 142C46.1721 142 46.7953 141.746 47.2492 141.247L55.5686 132.096C67.0639 119.45 73.3947 103.075 73.3947 85.9863V75.9071Z" fill="#FF7120"/>
<path d="M83.2088 75.9071C83.2088 61.1097 71.1704 49.0713 56.3729 49.0713C41.5755 49.0713 29.5371 61.1097 29.5371 75.9071V85.0074C29.5371 91.1168 27.2862 96.9823 23.1992 101.523L16.7242 108.718C15.8744 109.662 15.9511 111.116 16.8954 111.967C17.8394 112.816 19.294 112.739 20.1439 111.795L26.6188 104.601C31.4674 99.2139 34.1375 92.2552 34.1375 85.0074V75.9071C34.1375 63.6464 44.1121 53.6717 56.3729 53.6717C68.6337 53.6717 78.6083 63.6464 78.6083 75.9071V85.9864C78.6083 104.375 71.796 121.996 59.4261 135.603L57.1237 138.135C56.2692 139.075 56.3386 140.53 57.2786 141.385C57.7193 141.785 58.2732 141.983 58.8249 141.983C59.4506 141.983 60.0738 141.729 60.5277 141.23L62.8298 138.697C75.9711 124.242 83.2085 105.522 83.2085 85.9864V75.9071H83.2088Z" fill="#FF7120"/>
<path d="M19.7227 75.9071C19.7227 77.1777 20.7525 78.2073 22.0229 78.2073C23.2932 78.2073 24.3231 77.1777 24.3231 75.9071C24.3231 68.1615 27.1352 60.6793 32.2417 54.8386C37.3006 49.0522 44.2439 45.2682 51.7923 44.1837C53.0497 44.0031 53.9226 42.837 53.7419 41.5799C53.5613 40.3224 52.3943 39.4508 51.1381 39.6302C42.5015 40.8711 34.5606 45.1967 28.7781 51.8109C22.9387 58.4898 19.7227 67.0476 19.7227 75.9071Z" fill="#FF7120"/>
<path d="M24.3231 85.0074C24.3231 83.7367 23.2932 82.7072 22.0228 82.7072C20.7525 82.7072 19.7226 83.7367 19.7226 85.0074C19.7226 88.6883 18.3667 92.2218 15.9046 94.9575L10.1451 101.357C9.29529 102.301 9.37196 103.756 10.3163 104.606C10.7561 105.001 11.306 105.196 11.8544 105.196C12.4837 105.196 13.1109 104.939 13.5648 104.435L19.3242 98.0352C22.5476 94.4533 24.3231 89.8268 24.3231 85.0074Z" fill="#FF7120"/>
<path d="M88.5082 105.541C87.2787 105.221 86.0224 105.955 85.7004 107.184C84.8512 110.428 83.7949 113.654 82.5598 116.771C82.0918 117.952 82.67 119.289 83.851 119.756C84.1292 119.866 84.4157 119.919 84.6978 119.919C85.6133 119.919 86.4791 119.368 86.837 118.465C88.1402 115.176 89.255 111.772 90.1512 108.348C90.4726 107.12 89.7368 105.863 88.5082 105.541Z" fill="#FF7120"/>
<path d="M80.8518 48.6518C79.9069 47.8019 78.4525 47.8798 77.6033 48.8244C76.7541 49.7691 76.8313 51.2234 77.776 52.0726C84.542 58.155 88.4223 66.8422 88.4223 75.9072V85.9864C88.4223 89.8118 88.1585 93.6667 87.6381 97.4442C87.4648 98.7029 88.3444 99.8635 89.6028 100.037C89.7092 100.051 89.815 100.059 89.9196 100.059C91.0507 100.059 92.0367 99.2237 92.1953 98.0718C92.7442 94.0869 93.0227 90.0207 93.0227 85.9861V75.9072C93.023 65.5393 88.5867 55.6052 80.8518 48.6518Z" fill="#FF7120"/>
<path d="M70.0985 46.9477C70.4178 47.0998 70.7542 47.1716 71.0857 47.1716C71.9454 47.1716 72.7701 46.6873 73.1642 45.8596C73.7104 44.7128 73.2231 43.3401 72.0764 42.7941C68.7622 41.2162 65.2398 40.1517 61.607 39.63C60.3477 39.4505 59.1838 40.3225 59.0032 41.5796C58.8225 42.8368 59.6954 44.0028 60.9528 44.1835C64.1265 44.6395 67.2033 45.5694 70.0985 46.9477Z" fill="#FF7120"/>
<path d="M56.3726 29.4427C55.5121 29.4427 54.6417 29.4667 53.7851 29.5139C52.5166 29.5838 51.545 30.6689 51.6149 31.9371C51.6851 33.2056 52.769 34.1824 54.0384 34.107C54.811 34.0643 55.5961 34.0429 56.3723 34.0429C79.4561 34.0429 98.2363 52.8228 98.2363 75.9068V85.986C98.2363 87.2567 99.2662 88.2863 100.536 88.2863C101.807 88.2863 102.837 87.2567 102.837 85.986V75.9071C102.837 50.2867 81.9931 29.4427 56.3726 29.4427Z" fill="#FF7120"/>
<path d="M31.2223 41.9231C31.6753 41.9231 32.1332 41.7894 32.5335 41.5112C36.3604 38.85 40.5634 36.8632 45.0261 35.6048C46.2489 35.2601 46.9607 33.9892 46.616 32.7667C46.2713 31.5442 45 30.8333 43.7778 31.1768C38.8216 32.5741 34.155 34.7801 29.9072 37.7336C28.8642 38.4589 28.6065 39.8924 29.3319 40.9352C29.7787 41.5786 30.4945 41.9231 31.2223 41.9231Z" fill="#FF7120"/>
<path d="M14.5084 85.0074V75.9071C14.5084 65.2065 18.5607 55.0156 25.919 47.2111C26.7903 46.2868 26.7477 44.8312 25.8233 43.9596C24.8989 43.0879 23.443 43.1312 22.5717 44.0552C14.4053 52.7166 9.90794 64.0288 9.90794 75.9071V85.0074C9.90794 86.2596 9.44667 87.4616 8.60939 88.3918L5.77307 91.5431C4.92322 92.4874 4.99989 93.9417 5.9442 94.7916C6.3837 95.1875 6.93391 95.3823 7.48228 95.3823C8.11162 95.3823 8.73851 95.1256 9.19272 94.6211L12.029 91.4698C13.6278 89.6928 14.5084 87.3978 14.5084 85.0074Z" fill="#FF7120"/>
<path d="M109.73 57.9973C107.207 50.4998 103.198 43.7264 97.8134 37.8652C96.9537 36.9298 95.4987 36.8678 94.5633 37.7275C93.6279 38.5871 93.5662 40.0421 94.4256 40.9778C99.3717 46.3616 103.054 52.5814 105.37 59.4642C105.694 60.4251 106.59 61.0314 107.55 61.0314C107.793 61.0314 108.041 60.9925 108.284 60.9106C109.488 60.5054 110.135 59.2011 109.73 57.9973Z" fill="#FF7120"/>
<path d="M74.5513 22.6409C73.35 22.2296 72.0416 22.8703 71.6304 24.0725C71.2191 25.2745 71.8601 26.5822 73.062 26.9932C78.1341 28.7288 82.8962 31.2431 87.216 34.4671C87.6291 34.7753 88.1116 34.9237 88.59 34.9237C89.2911 34.9237 89.9836 34.6045 90.4354 33.9991C91.1954 32.9811 90.9856 31.5397 89.9677 30.78C85.2639 27.2702 80.0771 24.5314 74.5513 22.6409Z" fill="#FF7120"/>
<path d="M20.6323 38.6154C30.3082 29.3382 43.0011 24.229 56.3727 24.229C58.8557 24.229 61.3525 24.4078 63.7935 24.7599C65.0519 24.9433 66.2174 24.0692 66.3989 22.8117C66.5805 21.5543 65.7085 20.3882 64.4511 20.2067C61.7927 19.8233 59.0747 19.6285 56.3727 19.6285C41.8087 19.6285 27.985 25.1923 17.4485 35.2949C6.94477 45.3661 0.801972 58.8813 0.151777 73.3508C0.0947319 74.62 1.07738 75.6952 2.34618 75.752C2.38145 75.7538 2.41642 75.7544 2.45138 75.7544C3.67417 75.7544 4.6921 74.7914 4.74761 73.5576C5.34413 60.274 10.9855 47.8648 20.6323 38.6154Z" fill="#FF7120"/>
<path d="M56.3727 9.81421C51.2288 9.81421 46.103 10.4104 41.1379 11.5863C39.9016 11.8789 39.137 13.1185 39.4296 14.3545C39.7225 15.5905 40.9621 16.3554 42.1981 16.0625C46.8163 14.9695 51.5851 14.4146 56.3727 14.4146C73.2397 14.4146 88.9842 21.1346 100.705 33.3362C101.157 33.8064 101.76 34.0432 102.365 34.0432C102.938 34.0432 103.512 33.8303 103.958 33.4019C104.874 32.5216 104.904 31.0654 104.023 30.1497C97.9161 23.7922 90.7422 18.7909 82.7012 15.2857C74.3726 11.655 65.5143 9.81421 56.3727 9.81421Z" fill="#FF7120"/>
<path d="M4.70444 38.4608C5.12523 38.7901 5.62483 38.9499 6.12106 38.9499C6.80408 38.9499 7.48003 38.6472 7.93364 38.0679C14.4893 29.6945 23.1197 23.1266 32.8916 19.0736C34.065 18.5869 34.622 17.2411 34.1352 16.0677C33.6485 14.8943 32.3021 14.3367 31.1293 14.824C20.6278 19.1794 11.3542 26.2362 4.31156 35.2313C3.52826 36.232 3.70431 37.6778 4.70444 38.4608Z" fill="#FF7120"/>
<path d="M24.479 11.8768C24.8146 11.8768 25.1553 11.8032 25.4773 11.6474C35.1622 6.97119 45.557 4.60043 56.3732 4.60043C62.0097 4.60043 67.6234 5.26351 73.0578 6.57126C74.2922 6.86753 75.5349 6.10815 75.8321 4.87308C76.1293 3.63802 75.369 2.3956 74.1337 2.09841C68.3475 0.706013 62.3719 0 56.3732 0C44.8586 0 33.7909 2.52472 23.4774 7.50453C22.3334 8.05689 21.8537 9.43211 22.4061 10.5761C22.8026 11.3977 23.624 11.8768 24.479 11.8768Z" fill="#FF7120"/>
<path d="M82.6717 9.62495C85.043 10.5693 87.3902 11.655 89.6478 12.8514C89.991 13.0336 90.3596 13.1197 90.7227 13.1197C91.5471 13.1197 92.3442 12.6753 92.7571 11.896C93.3517 10.7735 92.9242 9.38143 91.8017 8.78644C89.3981 7.51274 86.8989 6.3568 84.3735 5.35115C83.1931 4.88098 81.8556 5.45696 81.3854 6.63682C80.9155 7.81698 81.4915 9.15509 82.6717 9.62495Z" fill="#FF7120"/>
</svg>
