<svg width="32" height="30" viewBox="0 0 32 30" fill="none" xmlns="http://www.w3.org/2000/svg">
<path d="M6.74967 29.9999C5.49967 29.9999 4.26356 29.6944 3.04134 29.0833C1.81912 28.4722 0.833008 27.6666 0.0830078 26.6666C0.80523 26.6666 1.54134 26.3816 2.29134 25.8116C3.04134 25.2416 3.41634 24.4155 3.41634 23.3333C3.41634 21.9444 3.90245 20.7638 4.87467 19.7916C5.8469 18.8194 7.02745 18.3333 8.41634 18.3333C9.80523 18.3333 10.9858 18.8194 11.958 19.7916C12.9302 20.7638 13.4163 21.9444 13.4163 23.3333C13.4163 25.1666 12.7636 26.7361 11.458 28.0416C10.1525 29.3472 8.58301 29.9999 6.74967 29.9999ZM16.333 19.9999L11.7497 15.4166L26.6663 0.49994C26.9719 0.194384 27.3541 0.0343844 27.813 0.01994C28.2719 0.00549555 28.6675 0.165495 28.9997 0.49994L31.2497 2.74994C31.583 3.08327 31.7497 3.47216 31.7497 3.91661C31.7497 4.36105 31.583 4.74994 31.2497 5.08327L16.333 19.9999Z" fill="#403D37"/>
</svg>
