<svg width="60" height="28" viewBox="0 0 60 28" fill="none" xmlns="http://www.w3.org/2000/svg">
<path d="M47.2813 19.3567C46.7569 19.578 46.23 19.6886 45.7006 19.6886C44.8599 19.6886 44.1035 19.5427 43.4316 19.251C42.7865 18.9743 42.2081 18.5628 41.7353 18.044C41.2748 17.531 40.9208 16.9287 40.6733 16.2371C40.3021 15.1997 40.307 14.7965 40.307 13.9975C40.307 13.1765 40.4291 12.4144 40.6733 11.7113C40.9192 11.0066 41.2707 10.3944 41.728 9.87491C42.1983 9.34721 42.7768 8.92712 43.4242 8.64329C44.1404 8.33508 44.9136 8.18177 45.6932 8.19341C46.2587 8.19505 46.8028 8.28027 47.3256 8.44908C47.8517 8.61952 48.3278 8.86863 48.7539 9.19641C49.393 9.68808 49.5307 9.93145 49.8036 10.4157C50.0869 10.9281 50.2595 11.4943 50.31 12.0776H48.0115C47.8672 11.4646 47.5911 11.0041 47.183 10.696C46.7513 10.3796 46.2257 10.2177 45.6908 10.2363C45.1483 10.2363 44.6878 10.3412 44.3092 10.551C43.7413 10.8656 43.6209 11.0402 43.3873 11.3966C43.153 11.7523 42.9817 12.1546 42.8735 12.6037C42.7113 13.2772 42.7113 13.5182 42.7113 14.0025C42.7113 14.4613 42.7654 14.9104 42.8735 15.3496C42.9817 15.7872 43.153 16.1797 43.3873 16.5272C43.6217 16.8762 43.929 17.1565 44.3092 17.3679C44.8795 17.685 45.15 17.6826 45.6908 17.6826C46.4906 17.6826 47.1084 17.4802 47.5444 17.0754C47.9803 16.6738 48.2352 16.0888 48.3089 15.3201H45.8825V13.5083H50.4845V19.4403H48.9505L48.7047 18.1988C48.3403 18.7032 47.8493 19.1025 47.2813 19.3567ZM54.4007 8.46874V17.3974H59.75V19.4329H51.994V8.46874H54.4007ZM7.59646 13.9975C7.59646 12.2546 8.43967 10.6149 9.92696 9.17428L12.6532 19.5509H14.5314L17.1741 10.1724L19.78 19.5509H21.663L24.9105 7.61324H22.7963L20.6797 16.7705L18.1255 7.61079H16.1883L13.6341 16.7681L11.5691 7.83941C15.2296 5.31962 21.078 3.68483 27.6663 3.68483C33.8416 3.68483 39.3778 4.98528 43.0579 7.23712C39.0459 3.46358 31.8356 0.815952 23.6002 0.811035C10.9791 0.811035 0.75 6.71349 0.75 13.9975C0.75 21.2816 10.9791 27.1914 23.5953 27.1914C31.8012 27.1914 38.9869 24.5487 43.0161 20.7997C39.336 23.0393 33.8195 24.3102 27.6663 24.3102C16.5792 24.3078 7.59646 19.696 7.59646 13.9975ZM30.1984 12.6381C29.9183 12.2379 29.5432 11.9135 29.1069 11.6941C28.6294 11.4675 28.1062 11.354 27.5778 11.3622C26.9337 11.3622 26.3601 11.4769 25.857 11.7064C25.385 11.9213 24.9724 12.2478 24.6548 12.6577C24.055 13.4223 23.7403 14.5015 23.7403 15.7774C23.7403 16.3428 23.8215 16.8787 23.9788 17.3581C24.1264 17.8222 24.3646 18.2525 24.6794 18.6241C25.321 19.3715 26.2355 19.7672 27.327 19.7672C27.8998 19.7672 28.3645 19.7082 28.7553 19.5853C29.0946 19.4796 29.3207 19.3395 29.5076 19.219C29.9647 18.9141 30.3396 18.5012 30.5991 18.0169C30.8203 17.6088 30.931 17.2229 30.9555 17.0262L30.9727 16.891H29.4166L29.4117 17.0016C29.3699 17.508 28.7062 18.4127 27.5212 18.4127C25.8299 18.4127 25.4268 17.1885 25.3972 16.1092H31.0662V15.9863C31.0726 15.3525 31.0025 14.7202 30.8572 14.1032C30.7288 13.5787 30.5055 13.0822 30.1984 12.6381ZM27.3983 12.761C28.6521 12.761 29.3232 13.437 29.4461 14.826H25.3874C25.4489 13.7001 26.3412 12.761 27.3983 12.761ZM38.8984 13.7812C38.7578 13.3225 38.5346 12.8935 38.2396 12.5152C37.9501 12.1544 37.5828 11.8636 37.1653 11.6646C36.7131 11.4585 36.2216 11.3529 35.7247 11.3548C35.2705 11.3524 34.8225 11.4604 34.4193 11.6695C34.0919 11.8386 33.8024 12.0728 33.5687 12.3578V8.69491H32.0175V19.5435H33.4925V18.8036C33.6395 18.9971 33.8143 19.1677 34.0112 19.31C34.4341 19.6132 34.9471 19.7648 35.5502 19.7648C36.1967 19.7648 36.7818 19.6197 37.271 19.3321C37.7119 19.0748 38.079 18.711 38.3723 18.2406C38.6395 17.7956 38.8345 17.311 38.95 16.805C39.0621 16.3188 39.119 15.8215 39.1197 15.3226C39.1283 14.8003 39.0536 14.28 38.8984 13.7812ZM37.5045 15.5438C37.5045 16.3944 37.3349 17.1073 37.008 17.6088C36.8533 17.862 36.634 18.0695 36.3726 18.2099C36.1112 18.3503 35.8172 18.4186 35.5207 18.4078C34.5939 18.4078 33.5073 17.7612 33.5073 15.9298C33.5073 15.0546 33.6179 14.3786 33.8392 13.8648C34.1587 13.1248 34.702 12.7684 35.4887 12.7684C36.3295 12.7684 36.8949 13.0953 37.2095 13.7763C37.4701 14.3343 37.5045 15.0177 37.5045 15.5438Z" fill="#403D37"/>
</svg>
