<svg width="34" height="18" viewBox="0 0 34 18" fill="none" xmlns="http://www.w3.org/2000/svg">
<path fill-rule="evenodd" clip-rule="evenodd" d="M0.0830078 0.666504V3.1665H1.74967V17.3332H4.24967V0.666504H0.0830078ZM6.74967 0.666504V15.6665H8.41634V17.3332H20.083V15.6665H33.4163V0.666504H6.74967ZM19 7.99988C19 10.209 17.2091 11.9999 15 11.9999C12.7909 11.9999 11 10.209 11 7.99988C11 5.79074 12.7909 3.99988 15 3.99988C17.2091 3.99988 19 5.79074 19 7.99988ZM26 11.9999C28.2091 11.9999 30 10.209 30 7.99988C30 5.79074 28.2091 3.99988 26 3.99988C23.7909 3.99988 22 5.79074 22 7.99988C22 10.209 23.7909 11.9999 26 11.9999Z" fill="#403D37"/>
</svg>
