<svg width="41" height="33" viewBox="0 0 41 33" fill="none" xmlns="http://www.w3.org/2000/svg">
<path d="M29.1935 0.124631C28.8562 0.196957 28.5553 0.38629 28.3441 0.659124C28.1329 0.931957 28.0251 1.2707 28.0397 1.6154V30.8462C28.0054 31.0553 28.017 31.2694 28.0737 31.4736C28.1304 31.6778 28.2309 31.8672 28.3681 32.0287C28.5053 32.1902 28.676 32.32 28.8683 32.409C29.0607 32.4979 29.27 32.544 29.482 32.544C29.6939 32.544 29.9033 32.4979 30.0956 32.409C30.288 32.32 30.4586 32.1902 30.5959 32.0287C30.7331 31.8672 30.8335 31.6778 30.8902 31.4736C30.9469 31.2694 30.9585 31.0553 30.9243 30.8462V1.6154C30.9292 1.40993 30.8907 1.20574 30.8113 1.01617C30.7319 0.826592 30.6134 0.655889 30.4636 0.515206C30.3138 0.374522 30.1359 0.267021 29.9417 0.19972C29.7475 0.13242 29.5413 0.106833 29.3366 0.124631C29.2889 0.122412 29.2412 0.122412 29.1935 0.124631ZM10.732 1.66309C10.3946 1.73542 10.0937 1.92475 9.88258 2.19759C9.6714 2.47042 9.56356 2.80916 9.57813 3.15386V29.3077C9.54386 29.5168 9.55549 29.7309 9.6122 29.9351C9.66891 30.1393 9.76935 30.3287 9.90655 30.4903C10.0438 30.6518 10.2144 30.7815 10.4068 30.8705C10.5991 30.9595 10.8085 31.0056 11.0204 31.0056C11.2324 31.0056 11.4417 30.9595 11.6341 30.8705C11.8264 30.7815 11.9971 30.6518 12.1343 30.4903C12.2715 30.3287 12.372 30.1393 12.4287 29.9351C12.4854 29.7309 12.497 29.5168 12.4627 29.3077V3.15386C12.4676 2.94839 12.4291 2.74421 12.3497 2.55463C12.2703 2.36505 12.1519 2.19435 12.002 2.05367C11.8522 1.91298 11.6744 1.80548 11.4802 1.73818C11.286 1.67088 11.0798 1.64529 10.875 1.66309C10.8274 1.66087 10.7796 1.66087 10.732 1.66309ZM24.5781 6.27848C24.2408 6.3508 23.9399 6.54014 23.7287 6.81297C23.5176 7.0858 23.4097 7.42455 23.4243 7.76925V24.6923C23.3893 24.9017 23.4003 25.1163 23.4566 25.321C23.513 25.5257 23.6132 25.7157 23.7504 25.8777C23.8876 26.0398 24.0585 26.17 24.2511 26.2593C24.4437 26.3486 24.6535 26.3948 24.8658 26.3948C25.0781 26.3948 25.2879 26.3486 25.4805 26.2593C25.6732 26.17 25.844 26.0398 25.9812 25.8777C26.1184 25.7157 26.2187 25.5257 26.275 25.321C26.3313 25.1163 26.3424 24.9017 26.3074 24.6923V7.76925C26.3122 7.56406 26.2738 7.36016 26.1946 7.17081C26.1154 6.98146 25.9972 6.81092 25.8477 6.67029C25.6982 6.52965 25.5208 6.42208 25.3269 6.35457C25.1331 6.28706 24.9272 6.26114 24.7227 6.27848C24.674 6.27616 24.6268 6.27616 24.5781 6.27848ZM6.11659 7.81694C5.77924 7.88927 5.47836 8.0786 5.26719 8.35143C5.05602 8.62426 4.94817 8.96301 4.96274 9.30771V23.1539C4.92774 23.3633 4.93878 23.5778 4.9951 23.7825C5.05142 23.9872 5.15167 24.1772 5.28887 24.3393C5.42607 24.5013 5.59693 24.6315 5.78956 24.7208C5.98219 24.8101 6.19196 24.8564 6.40428 24.8564C6.6166 24.8564 6.82637 24.8101 7.019 24.7208C7.21163 24.6315 7.38249 24.5013 7.51969 24.3393C7.65689 24.1772 7.75714 23.9872 7.81346 23.7825C7.86978 23.5778 7.88082 23.3633 7.84582 23.1539V9.30771C7.85066 9.10252 7.81222 8.89862 7.73303 8.70927C7.65383 8.51992 7.53563 8.34938 7.38615 8.20875C7.23666 8.06811 7.05923 7.96054 6.8654 7.89303C6.67158 7.82553 6.46571 7.7996 6.2612 7.81694C6.21251 7.81462 6.16528 7.81462 6.11659 7.81694ZM15.3474 9.3554C15.01 9.42773 14.7091 9.61706 14.498 9.88989C14.2868 10.1627 14.1789 10.5015 14.1935 10.8462V21.6154C14.1585 21.8248 14.1695 22.0393 14.2259 22.2441C14.2822 22.4488 14.3824 22.6388 14.5196 22.8008C14.6568 22.9628 14.8277 23.093 15.0203 23.1823C15.213 23.2716 15.4227 23.3179 15.635 23.3179C15.8474 23.3179 16.0571 23.2716 16.2498 23.1823C16.4424 23.093 16.6133 22.9628 16.7505 22.8008C16.8877 22.6388 16.9879 22.4488 17.0442 22.2441C17.1005 22.0393 17.1116 21.8248 17.0766 21.6154V10.8462C17.0814 10.641 17.043 10.4371 16.9638 10.2477C16.8846 10.0584 16.7664 9.88784 16.6169 9.74721C16.4674 9.60657 16.29 9.499 16.0962 9.43149C15.9023 9.36399 15.6965 9.33806 15.492 9.3554C15.4433 9.35309 15.396 9.35309 15.3474 9.3554ZM33.8089 9.3554C33.4715 9.42773 33.1707 9.61706 32.9595 9.88989C32.7483 10.1627 32.6405 10.5015 32.655 10.8462V21.6154C32.6208 21.8245 32.6324 22.0386 32.6891 22.2428C32.7458 22.447 32.8463 22.6364 32.9835 22.7979C33.1207 22.9595 33.2914 23.0892 33.4837 23.1782C33.676 23.2672 33.8854 23.3133 34.0974 23.3133C34.3093 23.3133 34.5187 23.2672 34.711 23.1782C34.9033 23.0892 35.074 22.9595 35.2112 22.7979C35.3484 22.6364 35.4489 22.447 35.5056 22.2428C35.5623 22.0386 35.5739 21.8245 35.5397 21.6154V10.8462C35.5445 10.6407 35.506 10.4365 35.4267 10.2469C35.3473 10.0574 35.2288 9.88666 35.079 9.74597C34.9291 9.60529 34.7513 9.49779 34.5571 9.43049C34.3629 9.36319 34.1567 9.3376 33.952 9.3554C33.9043 9.35318 33.8566 9.35318 33.8089 9.3554ZM1.5012 12.4323C1.16386 12.5047 0.862978 12.694 0.651806 12.9668C0.440635 13.2396 0.332789 13.5784 0.347356 13.9231V18.5385C0.313091 18.7476 0.324716 18.9617 0.381426 19.1659C0.438137 19.3701 0.538575 19.5595 0.67578 19.721C0.812984 19.8825 0.983672 20.0123 1.17601 20.1013C1.36835 20.1902 1.57774 20.2363 1.78966 20.2363C2.00159 20.2363 2.21098 20.1902 2.40332 20.1013C2.59565 20.0123 2.76634 19.8825 2.90355 19.721C3.04075 19.5595 3.14119 19.3701 3.1979 19.1659C3.25461 18.9617 3.26624 18.7476 3.23197 18.5385V13.9231C3.23685 13.7176 3.19835 13.5134 3.11896 13.3239C3.03958 13.1343 2.92111 12.9636 2.77128 12.8229C2.62145 12.6822 2.44363 12.5747 2.24943 12.5074C2.05524 12.4401 1.84903 12.4145 1.64428 12.4323C1.5961 12.4301 1.54784 12.4301 1.49966 12.4323H1.5012ZM19.9627 12.4323C19.6254 12.5047 19.3245 12.694 19.1133 12.9668C18.9022 13.2396 18.7943 13.5784 18.8089 13.9231V18.5385C18.7739 18.7479 18.7849 18.9624 18.8413 19.1671C18.8976 19.3719 18.9978 19.5618 19.135 19.7239C19.2722 19.8859 19.4431 20.0161 19.6357 20.1054C19.8283 20.1947 20.0381 20.241 20.2504 20.241C20.4628 20.241 20.6725 20.1947 20.8652 20.1054C21.0578 20.0161 21.2286 19.8859 21.3658 19.7239C21.503 19.5618 21.6033 19.3719 21.6596 19.1671C21.7159 18.9624 21.727 18.7479 21.692 18.5385V13.9231C21.6968 13.7179 21.6584 13.514 21.5792 13.3247C21.5 13.1353 21.3818 12.9648 21.2323 12.8241C21.0828 12.6835 20.9054 12.5759 20.7116 12.5084C20.5177 12.4409 20.3119 12.415 20.1074 12.4323C20.0587 12.43 20.0114 12.43 19.9627 12.4323ZM38.4243 12.4323C38.0869 12.5047 37.7861 12.694 37.5749 12.9668C37.3637 13.2396 37.2559 13.5784 37.2704 13.9231V18.5385C37.2362 18.7476 37.2478 18.9617 37.3045 19.1659C37.3612 19.3701 37.4617 19.5595 37.5989 19.721C37.7361 19.8825 37.9067 20.0123 38.0991 20.1013C38.2914 20.1902 38.5008 20.2363 38.7127 20.2363C38.9247 20.2363 39.1341 20.1902 39.3264 20.1013C39.5187 20.0123 39.6894 19.8825 39.8266 19.721C39.9638 19.5595 40.0643 19.3701 40.121 19.1659C40.1777 18.9617 40.1893 18.7476 40.155 18.5385V13.9231C40.1599 13.7176 40.1214 13.5134 40.042 13.3239C39.9627 13.1343 39.8442 12.9636 39.6944 12.8229C39.5445 12.6822 39.3667 12.5747 39.1725 12.5074C38.9783 12.4401 38.7721 12.4145 38.5674 12.4323C38.5197 12.4301 38.4719 12.4301 38.4243 12.4323Z" fill="#403D37"/>
</svg>
