<svg width="40" height="30" viewBox="0 0 40 30" fill="none" xmlns="http://www.w3.org/2000/svg">
<path d="M11.525 1.49995L0.875 29.175H4.225L7.95 19.525H17.95L21.75 29.175H25.1L14.45 1.49995C14.3331 1.2076 14.1313 0.956973 13.8707 0.780428C13.61 0.603883 13.3023 0.509521 12.9875 0.509521C12.6727 0.509521 12.365 0.603883 12.1043 0.780428C11.8437 0.956973 11.6419 1.2076 11.525 1.49995ZM9.15 16.5L13 6.49995L16.825 16.5H9.15ZM32.525 10.15C30.8596 9.97642 29.1871 10.4056 27.8111 11.3597C26.435 12.3137 25.4466 13.7295 25.025 15.35L28.05 16.125C28.3184 15.1901 28.9183 14.3851 29.7374 13.8605C30.5564 13.3359 31.5386 13.1278 32.5 13.275C34.425 13.275 36.475 13.925 36.475 15.775V17.65C35.8 17.65 34.9 17.875 34.125 17.975C31.9909 18.1124 29.8869 18.55 27.875 19.275C26.728 19.6449 25.747 20.4054 25.1029 21.4241C24.4588 22.4428 24.1924 23.6551 24.35 24.85C24.4219 25.577 24.6571 26.2783 25.038 26.9017C25.419 27.5251 25.9358 28.0543 26.55 28.45C27.7705 29.1858 29.1753 29.5587 30.6 29.525C31.7552 29.5213 32.9026 29.3357 34 28.975C34.9103 28.7093 35.7597 28.2676 36.5 27.675V29.2H39.625V15.75C39.625 12.5 36.775 10.15 32.525 10.15ZM33.075 25.975C32.3095 26.2744 31.4907 26.4134 30.6693 26.3833C29.8479 26.3532 29.0415 26.1546 28.3 25.8C28.0689 25.6671 27.8747 25.4785 27.735 25.2515C27.5953 25.0245 27.5145 24.7661 27.5 24.5C27.25 22.275 29.55 21.6 34.5 21.05L36.4 20.8C35.925 25 34.05 25.65 33.075 25.975Z" fill="#403D37"/>
</svg>
