<svg width="28" height="28" viewBox="0 0 28 28" fill="none" xmlns="http://www.w3.org/2000/svg">
<path d="M28 14C28 17.713 26.525 21.274 23.8995 23.8995C21.274 26.525 17.713 28 14 28C10.287 28 6.72601 26.525 4.10051 23.8995C1.475 21.274 0 17.713 0 14C0 10.287 1.475 6.72601 4.10051 4.10051C6.72601 1.475 10.287 0 14 0C17.713 0 21.274 1.475 23.8995 4.10051C26.525 6.72601 28 10.287 28 14ZM14 6.125C14 5.89294 13.9078 5.67038 13.7437 5.50628C13.5796 5.34219 13.3571 5.25 13.125 5.25C12.8929 5.25 12.6704 5.34219 12.5063 5.50628C12.3422 5.67038 12.25 5.89294 12.25 6.125V15.75C12.25 15.9042 12.2909 16.0557 12.3683 16.1891C12.4458 16.3225 12.5571 16.433 12.691 16.5095L18.816 20.0095C19.017 20.1181 19.2525 20.1438 19.4722 20.0811C19.6919 20.0184 19.8784 19.8722 19.9917 19.6738C20.1051 19.4755 20.1364 19.2406 20.0789 19.0195C20.0214 18.7984 19.8796 18.6085 19.684 18.4905L14 15.2425V6.125Z" fill="#403D37"/>
</svg>
