<svg width="28" height="28" viewBox="0 0 28 28" fill="none" xmlns="http://www.w3.org/2000/svg">
<path d="M23.5777 12.3284H22.891V6.02632C22.891 5.56009 22.7123 5.11297 22.3944 4.7833C22.0764 4.45363 21.6451 4.26842 21.1954 4.26842H16.1085C16.0549 3.21035 15.6442 2.20546 14.9484 1.42944C14.2526 0.653422 13.3158 0.155637 12.3018 0.0231081C11.7218 -0.038795 11.1358 0.0239994 10.5803 0.207566C10.0248 0.391132 9.51177 0.691524 9.07334 1.08996C8.63491 1.4884 8.28047 1.97632 8.03218 2.52322C7.78389 3.07011 7.64709 3.66423 7.63033 4.26842H1.69563C1.24592 4.26842 0.81463 4.45363 0.496638 4.7833C0.178646 5.11297 0 5.56009 0 6.02632V13.2073H2.38236C3.03472 13.1877 3.67118 13.4179 4.17011 13.8541C4.66903 14.2903 4.99542 14.9018 5.08689 15.5717C5.11989 15.9392 5.07808 16.3099 4.96417 16.6597C4.85025 17.0094 4.66677 17.3305 4.42559 17.6021C4.18856 17.8768 3.89859 18.097 3.5744 18.2484C3.25021 18.3998 2.899 18.479 2.54344 18.481H0V26.2421C0 26.7083 0.178646 27.1555 0.496638 27.4851C0.81463 27.8148 1.24592 28 1.69563 28H21.1954C21.6451 28 22.0764 27.8148 22.3944 27.4851C22.7123 27.1555 22.891 26.7083 22.891 26.2421V21.1178H23.7388C24.3338 21.1211 24.9228 20.9944 25.4675 20.746C26.0122 20.4977 26.5003 20.1333 26.9002 19.6764C27.3 19.2196 27.6026 18.6806 27.7883 18.0946C27.974 17.5085 28.0386 16.8885 27.9779 16.2748C27.8405 15.1714 27.3159 14.159 26.5043 13.4311C25.6926 12.7031 24.6508 12.3106 23.5777 12.3284Z" fill="#403D37"/>
</svg>
