<svg width="27" height="24" viewBox="0 0 27 24" fill="none" xmlns="http://www.w3.org/2000/svg">
<path d="M4.05 0H22.95C24.0241 0 25.0543 0.421427 25.8138 1.17157C26.5733 1.92172 27 2.93913 27 4V16C27 17.0609 26.5733 18.0783 25.8138 18.8284C25.0543 19.5786 24.0241 20 22.95 20H4.05C2.97587 20 1.94574 19.5786 1.18622 18.8284C0.426695 18.0783 0 17.0609 0 16L0 4C0 2.93913 0.426695 1.92172 1.18622 1.17157C1.94574 0.421427 2.97587 0 4.05 0ZM9.45 21.3333H17.55C17.908 21.3333 18.2514 21.4738 18.5046 21.7239C18.7578 21.9739 18.9 22.313 18.9 22.6667C18.9 23.0203 18.7578 23.3594 18.5046 23.6095C18.2514 23.8595 17.908 24 17.55 24H9.45C9.09196 24 8.74858 23.8595 8.49541 23.6095C8.24223 23.3594 8.1 23.0203 8.1 22.6667C8.1 22.313 8.24223 21.9739 8.49541 21.7239C8.74858 21.4738 9.09196 21.3333 9.45 21.3333Z" fill="#403D37"/>
</svg>
