<svg width="28" height="22" viewBox="0 0 28 22" fill="none" xmlns="http://www.w3.org/2000/svg">
<path fill-rule="evenodd" clip-rule="evenodd" d="M12.1332 1.66316L11.4304 1.14251C10.4276 0.398978 9.22923 -0.00021186 8.00065 8.43533e-08H7.1439C6.57693 8.43533e-08 6.00576 0.0366656 5.4724 0.234661C2.13639 1.47543 -0.158077 6.00585 0.0085133 16.284C0.0421113 18.3549 0.504084 20.6428 2.28758 21.536C2.89598 21.8424 3.56261 22.0009 4.23767 21.9995C4.99642 22.0125 5.74182 21.7894 6.37954 21.3585C6.95351 20.9655 7.45748 20.4551 7.96145 19.9447C8.58301 19.3141 9.20458 18.6834 9.95493 18.2757C10.7723 17.8312 11.6798 17.5993 12.6008 17.5996H15.3992C16.3204 17.5996 17.2275 17.8313 18.0451 18.2742C18.7954 18.6834 19.417 19.3141 20.0399 19.9447C20.5439 20.4551 21.0479 20.9655 21.6191 21.3585C22.165 21.734 22.872 21.9995 23.7623 21.9995C24.4374 22.0009 25.104 21.8424 25.7124 21.536C27.4959 20.6428 27.9579 18.3534 27.9915 16.284C28.1581 6.00585 25.8636 1.47543 22.5276 0.236127C21.9928 0.0366655 21.4189 8.43533e-08 20.8547 8.43533e-08H19.9979C18.7692 0.000216939 17.5708 0.399924 16.5681 1.14397L15.8654 1.66316C15.3196 2.06721 14.6676 2.28415 13.9993 2.28415C13.331 2.28415 12.679 2.06721 12.1332 1.66316ZM20.6489 5.86652C20.9274 5.86652 21.1944 5.98241 21.3913 6.1887C21.5882 6.39498 21.6989 6.67476 21.6989 6.9665C21.6989 7.25823 21.5882 7.53801 21.3913 7.74429C21.1944 7.95058 20.9274 8.06647 20.6489 8.06647C20.3705 8.06647 20.1034 7.95058 19.9065 7.74429C19.7096 7.53801 19.599 7.25823 19.599 6.9665C19.599 6.67476 19.7096 6.39498 19.9065 6.1887C20.1034 5.98241 20.3705 5.86652 20.6489 5.86652ZM7.69967 6.23318C7.97813 6.23318 8.24518 6.34907 8.44208 6.55536C8.63899 6.76164 8.7496 7.04142 8.7496 7.33315V8.43313H9.79954C10.078 8.43313 10.3451 8.54902 10.542 8.7553C10.7389 8.96159 10.8495 9.24137 10.8495 9.5331C10.8495 9.82483 10.7389 10.1046 10.542 10.3109C10.3451 10.5172 10.078 10.6331 9.79954 10.6331H8.7496V11.733C8.7496 12.0248 8.63899 12.3046 8.44208 12.5108C8.24518 12.7171 7.97813 12.833 7.69967 12.833C7.4212 12.833 7.15415 12.7171 6.95725 12.5108C6.76034 12.3046 6.64973 12.0248 6.64973 11.733V10.6331H5.59979C5.32133 10.6331 5.05427 10.5172 4.85737 10.3109C4.66047 10.1046 4.54985 9.82483 4.54985 9.5331C4.54985 9.24137 4.66047 8.96159 4.85737 8.7553C5.05427 8.54902 5.32133 8.43313 5.59979 8.43313H6.64973V7.33315C6.64973 7.04142 6.76034 6.76164 6.95725 6.55536C7.15415 6.34907 7.4212 6.23318 7.69967 6.23318ZM23.7987 9.16644C23.7987 9.45817 23.6881 9.73796 23.4912 9.94424C23.2943 10.1505 23.0273 10.2664 22.7488 10.2664C22.4703 10.2664 22.2033 10.1505 22.0064 9.94424C21.8095 9.73796 21.6989 9.45817 21.6989 9.16644C21.6989 8.87471 21.8095 8.59493 22.0064 8.38864C22.2033 8.18236 22.4703 8.06647 22.7488 8.06647C23.0273 8.06647 23.2943 8.18236 23.4912 8.38864C23.6881 8.59493 23.7987 8.87471 23.7987 9.16644ZM18.549 10.2664C18.8275 10.2664 19.0946 10.1505 19.2915 9.94424C19.4884 9.73796 19.599 9.45817 19.599 9.16644C19.599 8.87471 19.4884 8.59493 19.2915 8.38864C19.0946 8.18236 18.8275 8.06647 18.549 8.06647C18.2706 8.06647 18.0035 8.18236 17.8066 8.38864C17.6097 8.59493 17.4991 8.87471 17.4991 9.16644C17.4991 9.45817 17.6097 9.73796 17.8066 9.94424C18.0035 10.1505 18.2706 10.2664 18.549 10.2664ZM21.6989 11.3664C21.6989 11.0747 21.5882 10.7949 21.3913 10.5886C21.1944 10.3823 20.9274 10.2664 20.6489 10.2664C20.3705 10.2664 20.1034 10.3823 19.9065 10.5886C19.7096 10.7949 19.599 11.0747 19.599 11.3664C19.599 11.6581 19.7096 11.9379 19.9065 12.1442C20.1034 12.3505 20.3705 12.4664 20.6489 12.4664C20.9274 12.4664 21.1944 12.3505 21.3913 12.1442C21.5882 11.9379 21.6989 11.6581 21.6989 11.3664Z" fill="#403D37"/>
</svg>
