<svg width="27" height="26" viewBox="0 0 27 26" fill="none" xmlns="http://www.w3.org/2000/svg">
<path d="M19.386 15.6C19.494 14.742 19.575 13.884 19.575 13C19.575 12.116 19.494 11.258 19.386 10.4H23.949C24.165 11.232 24.3 12.103 24.3 13C24.3 13.897 24.165 14.768 23.949 15.6M16.9965 22.828C17.8065 21.385 18.4275 19.825 18.8595 18.2H22.842C21.5341 20.3688 19.4591 22.0116 16.9965 22.828ZM16.659 15.6H10.341C10.206 14.742 10.125 13.884 10.125 13C10.125 12.116 10.206 11.245 10.341 10.4H16.659C16.7805 11.245 16.875 12.116 16.875 13C16.875 13.884 16.7805 14.742 16.659 15.6ZM13.5 23.348C12.3795 21.788 11.475 20.059 10.9215 18.2H16.0785C15.525 20.059 14.6205 21.788 13.5 23.348ZM8.1 7.8H4.158C5.45217 5.62514 7.52579 3.97961 9.99 3.172C9.18 4.615 8.5725 6.175 8.1 7.8ZM4.158 18.2H8.1C8.5725 19.825 9.18 21.385 9.99 22.828C7.53066 22.012 5.45979 20.3686 4.158 18.2ZM3.051 15.6C2.835 14.768 2.7 13.897 2.7 13C2.7 12.103 2.835 11.232 3.051 10.4H7.614C7.506 11.258 7.425 12.116 7.425 13C7.425 13.884 7.506 14.742 7.614 15.6M13.5 2.639C14.6205 4.199 15.525 5.941 16.0785 7.8H10.9215C11.475 5.941 12.3795 4.199 13.5 2.639ZM22.842 7.8H18.8595C18.4363 6.19009 17.8107 4.63594 16.9965 3.172C19.4805 3.991 21.546 5.642 22.842 7.8ZM13.5 0C6.0345 0 0 5.85 0 13C0 16.4478 1.42232 19.7544 3.95406 22.1924C5.20765 23.3995 6.69588 24.3571 8.33377 25.0104C9.97167 25.6637 11.7272 26 13.5 26C17.0804 26 20.5142 24.6304 23.0459 22.1924C25.5777 19.7544 27 16.4478 27 13C27 11.2928 26.6508 9.60235 25.9724 8.02512C25.2939 6.44788 24.2995 5.01477 23.0459 3.80761C21.7924 2.60045 20.3041 1.64288 18.6662 0.989566C17.0283 0.336255 15.2728 0 13.5 0Z" fill="#403D37"/>
</svg>
