<svg width="30" height="30" viewBox="0 0 30 30" fill="none" xmlns="http://www.w3.org/2000/svg">
<g clip-path="url(#clip0_3335_7599)">
<path d="M3.20155 1.55005H27.8856C28.0569 1.55005 28.2275 1.6199 28.358 1.7544C28.4896 1.88992 28.5686 2.07991 28.5686 2.28405V27.716C28.5686 27.9202 28.4896 28.1102 28.358 28.2457C28.2275 28.3802 28.0569 28.45 27.8856 28.45H3.20155C3.03021 28.45 2.85962 28.3802 2.72907 28.2457C2.59754 28.1102 2.51855 27.9202 2.51855 27.716V2.28405C2.51855 2.07991 2.59754 1.88992 2.72907 1.7544C2.85962 1.6199 3.03021 1.55005 3.20155 1.55005Z" stroke="#403D37" stroke-width="2"/>
<path fill-rule="evenodd" clip-rule="evenodd" d="M20.0383 5.18091H19.4777V6.91367H20.0383C20.3357 6.91367 20.6208 7.03537 20.8311 7.25201C21.0414 7.46865 21.1595 7.76247 21.1595 8.06884V16.7326L11.6293 5.75849H7.14453V7.49125H8.26573C8.56309 7.49125 8.84827 7.61296 9.05853 7.8296C9.2688 8.04623 9.38692 8.34005 9.38692 8.64643V18.4654C9.38692 18.7718 9.2688 19.0656 9.05853 19.2822C8.84827 19.4989 8.56309 19.6206 8.26573 19.6206H7.70513V21.3533H12.7505V19.6206H12.1899C11.8926 19.6206 11.6074 19.4989 11.3971 19.2822C11.1868 19.0656 11.0687 18.7718 11.0687 18.4654V8.64643L18.8924 18.0507C20.2323 18.1824 21.5497 18.3926 22.8413 18.6762V8.06884C22.8413 7.76247 22.9594 7.46865 23.1697 7.25201C23.3799 7.03537 23.6651 6.91367 23.9625 6.91367H24.5231V5.18091H20.0383Z" fill="#403D37"/>
<path d="M19.4777 5.1811V4.60352C19.3291 4.60352 19.1865 4.66437 19.0813 4.77269C18.9762 4.881 18.9171 5.02792 18.9171 5.1811H19.4777ZM19.4777 6.91386H18.9171C18.9171 7.06705 18.9762 7.21396 19.0813 7.32228C19.1865 7.43059 19.3291 7.49145 19.4777 7.49145V6.91386ZM21.1595 16.7328L20.7419 17.1181C20.8176 17.2052 20.9172 17.2666 21.0275 17.2941C21.1378 17.3217 21.2537 17.3141 21.3597 17.2723C21.4657 17.2306 21.5569 17.1566 21.6213 17.0603C21.6857 16.964 21.7201 16.8498 21.7201 16.7328H21.1595ZM11.6294 5.75869L12.047 5.37344C11.9944 5.31293 11.9301 5.26452 11.8581 5.23138C11.7861 5.19824 11.7082 5.18111 11.6294 5.1811V5.75869ZM7.14458 5.75869V5.1811C6.9959 5.1811 6.85331 5.24195 6.74818 5.35027C6.64305 5.45859 6.58398 5.6055 6.58398 5.75869H7.14458ZM7.14458 7.49145H6.58398C6.58398 7.64463 6.64305 7.79154 6.74818 7.89986C6.85331 8.00818 6.9959 8.06903 7.14458 8.06903V7.49145ZM7.70518 19.6208V19.0432C7.5565 19.0432 7.41391 19.104 7.30878 19.2123C7.20365 19.3207 7.14458 19.4676 7.14458 19.6208H7.70518ZM7.70518 21.3535H7.14458C7.14458 21.5067 7.20365 21.6536 7.30878 21.7619C7.41391 21.8703 7.5565 21.9311 7.70518 21.9311V21.3535ZM12.7506 21.3535V21.9311C12.8992 21.9311 13.0418 21.8703 13.147 21.7619C13.2521 21.6536 13.3112 21.5067 13.3112 21.3535H12.7506ZM12.7506 19.6208H13.3112C13.3112 19.4676 13.2521 19.3207 13.147 19.2123C13.0418 19.104 12.8992 19.0432 12.7506 19.0432V19.6208ZM11.0688 8.64662L11.4948 8.27119C11.4203 8.18145 11.321 8.11739 11.2101 8.08763C11.0992 8.05788 10.9821 8.06385 10.8746 8.10476C10.767 8.14567 10.6743 8.21954 10.6088 8.31642C10.5433 8.4133 10.5082 8.52854 10.5082 8.64662H11.0688ZM18.8925 18.0509L18.467 18.4269C18.5614 18.5404 18.6948 18.6119 18.8392 18.6262L18.8925 18.0509ZM22.8413 18.6764L22.7242 19.2413C22.8059 19.2593 22.8905 19.2582 22.9718 19.2382C23.053 19.2182 23.1289 19.1797 23.1939 19.1255C23.2589 19.0714 23.3113 19.0029 23.3473 18.9252C23.3833 18.8475 23.4019 18.7625 23.4019 18.6764H22.8413ZM24.5231 6.91386V7.49145C24.6718 7.49145 24.8144 7.43059 24.9195 7.32228C25.0247 7.21396 25.0837 7.06705 25.0837 6.91386H24.5231ZM24.5231 5.1811H25.0837C25.0837 5.02792 25.0247 4.881 24.9195 4.77269C24.8144 4.66437 24.6718 4.60352 24.5231 4.60352V5.1811ZM19.4777 5.75869H20.0383V4.60352H19.4777V5.75869ZM20.0383 6.91386V5.1811H18.9171V6.91386H20.0383ZM20.0383 6.33627H19.4777V7.49145H20.0383V6.33627ZM21.7201 8.06903C21.7201 7.60948 21.543 7.16874 21.2276 6.84379C20.9122 6.51883 20.4844 6.33627 20.0383 6.33627V7.49145C20.187 7.49145 20.3296 7.5523 20.4347 7.66062C20.5399 7.76894 20.5989 7.91585 20.5989 8.06903H21.7201ZM21.7201 16.7328V8.06903H20.5989V16.7328H21.7201ZM11.2117 6.14394L20.7419 17.1181L21.5772 16.3476L12.047 5.37344L11.2117 6.14394ZM11.0688 6.33627H11.6294V5.1811H11.0688V6.33627ZM8.26578 6.33627H11.0688V5.1811H8.26578V6.33627ZM7.14458 6.33627H8.26578V5.1811H7.14458V6.33627ZM7.70518 7.49145V5.75869H6.58398V7.49145H7.70518ZM8.26578 6.91386H7.14458V8.06903H8.26578V6.91386ZM9.94757 8.64662C9.94757 8.18706 9.77039 7.74633 9.45499 7.42137C9.13959 7.09642 8.71182 6.91386 8.26578 6.91386V8.06903C8.41446 8.06903 8.55705 8.12989 8.66218 8.2382C8.76732 8.34652 8.82638 8.49343 8.82638 8.64662H9.94757ZM9.94757 18.4656V8.64662H8.82638V18.4656H9.94757ZM8.26578 20.1983C8.71182 20.1983 9.13959 20.0158 9.45499 19.6908C9.77039 19.3659 9.94757 18.9251 9.94757 18.4656H8.82638C8.82638 18.6188 8.76732 18.7657 8.66218 18.874C8.55705 18.9823 8.41446 19.0432 8.26578 19.0432V20.1983ZM7.70518 20.1983H8.26578V19.0432H7.70518V20.1983ZM8.26578 21.3535V19.6208H7.14458V21.3535H8.26578ZM8.26578 20.7759H7.70518V21.9311H8.26578V20.7759ZM12.19 20.7759H8.26578V21.9311H12.19V20.7759ZM12.7506 20.7759H12.19V21.9311H12.7506V20.7759ZM12.19 19.6208V21.3535H13.3112V19.6208H12.19ZM12.19 20.1983H12.7506V19.0432H12.19V20.1983ZM10.5082 18.4656C10.5082 18.9251 10.6854 19.3659 11.0008 19.6908C11.3162 20.0158 11.7439 20.1983 12.19 20.1983V19.0432C12.0413 19.0432 11.8987 18.9823 11.7936 18.874C11.6884 18.7657 11.6294 18.6188 11.6294 18.4656H10.5082ZM10.5082 8.64662V18.4656H11.6294V8.64662H10.5082ZM19.3185 17.6754L11.4943 8.27061L10.6433 9.02263L18.467 18.4269L19.3185 17.6754ZM22.9585 18.1115C21.6467 17.8227 20.3069 17.6096 18.9457 17.4762L18.8392 18.6262C20.1578 18.7561 21.4544 18.9623 22.7242 19.2413L22.9585 18.1115ZM22.2807 18.4656V18.6764H23.4019V18.4656H22.2807ZM22.2807 8.06903V18.4656H23.4019V8.06903H22.2807ZM23.9625 6.33627C23.5165 6.33627 23.0887 6.51883 22.7733 6.84379C22.4579 7.16874 22.2807 7.60948 22.2807 8.06903H23.4019C23.4019 7.91585 23.461 7.76894 23.5661 7.66062C23.6713 7.5523 23.8139 7.49145 23.9625 7.49145V6.33627ZM24.5231 6.33627H23.9625V7.49145H24.5231V6.33627ZM23.9625 5.1811V6.91386H25.0837V5.1811H23.9625ZM23.9625 5.75869H24.5231V4.60352H23.9625V5.75869ZM20.0383 5.75869H23.9625V4.60352H20.0383V5.75869Z" fill="#403D37"/>
</g>
<defs>
<clipPath id="clip0_3335_7599">
<rect width="29" height="30" fill="white" transform="translate(0.75)"/>
</clipPath>
</defs>
</svg>
