<svg width="30" height="26" viewBox="0 0 30 26" fill="none" xmlns="http://www.w3.org/2000/svg">
<path d="M18.1171 1.00625C18.4627 1.10346 18.7556 1.33397 18.9313 1.64707C19.1071 1.96018 19.1513 2.33026 19.0542 2.67594L13.0552 24.0555C13.0072 24.2268 12.9259 24.3869 12.816 24.5267C12.7062 24.6666 12.5698 24.7834 12.4147 24.8705C12.2597 24.9577 12.089 25.0134 11.9124 25.0346C11.7358 25.0558 11.5568 25.042 11.3855 24.994C11.2143 24.9459 11.0542 24.8647 10.9143 24.7548C10.7745 24.6449 10.6577 24.5085 10.5705 24.3535C10.4834 24.1984 10.4276 24.0277 10.4065 23.8511C10.3853 23.6746 10.3991 23.4955 10.4471 23.3243L16.4461 1.94469C16.4941 1.77327 16.5754 1.613 16.6853 1.47304C16.7953 1.33308 16.9318 1.21618 17.087 1.12901C17.2422 1.04185 17.4131 0.986148 17.5898 0.965083C17.7666 0.944017 17.9458 0.958005 18.1171 1.00625ZM8.26013 6.29698C8.51399 6.55092 8.65661 6.8953 8.65661 7.25437C8.65661 7.61345 8.51399 7.95782 8.26013 8.21177L3.47315 13.0001L8.26013 17.7871C8.38594 17.9128 8.48576 18.0621 8.55389 18.2264C8.62201 18.3907 8.65711 18.5668 8.65717 18.7447C8.65724 18.9225 8.62226 19.0987 8.55426 19.263C8.48625 19.4274 8.38653 19.5767 8.26081 19.7025C8.13508 19.8284 7.9858 19.9282 7.8215 19.9963C7.65719 20.0644 7.48108 20.0995 7.30321 20.0996C7.12534 20.0997 6.9492 20.0647 6.78485 19.9967C6.6205 19.9287 6.47115 19.829 6.34534 19.7032L0.599607 13.9575C0.345739 13.7036 0.203125 13.3592 0.203125 13.0001C0.203125 12.641 0.345739 12.2966 0.599607 12.0427L6.34534 6.29698C6.59928 6.04311 6.94366 5.9005 7.30273 5.9005C7.66181 5.9005 8.00618 6.04311 8.26013 6.29698ZM21.2412 8.21177C21.1118 8.08685 21.0087 7.93743 20.9377 7.77221C20.8667 7.607 20.8294 7.4293 20.8278 7.2495C20.8262 7.06969 20.8605 6.89138 20.9286 6.72496C20.9967 6.55853 21.0972 6.40734 21.2244 6.28019C21.3515 6.15305 21.5027 6.05249 21.6692 5.98441C21.8356 5.91632 22.0139 5.88205 22.1937 5.88362C22.3735 5.88518 22.5512 5.92254 22.7164 5.99351C22.8816 6.06448 23.031 6.16764 23.156 6.29698L28.9017 12.0427C29.1556 12.2966 29.2982 12.641 29.2982 13.0001C29.2982 13.3592 29.1556 13.7036 28.9017 13.9575L23.156 19.7032C22.9019 19.9571 22.5573 20.0997 22.1981 20.0996C21.8389 20.0995 21.4944 19.9566 21.2405 19.7025C20.9866 19.4485 20.844 19.1039 20.8441 18.7447C20.8443 18.3855 20.9871 18.041 21.2412 17.7871L26.0281 13.0001L21.2412 8.21177Z" fill="#403D37"/>
</svg>
