<svg width="35" height="34" viewBox="0 0 35 34" fill="none" xmlns="http://www.w3.org/2000/svg">
<path d="M17.4995 31.7502C25.646 31.7502 32.25 25.1462 32.25 16.9998C32.25 8.85346 25.646 2.24951 17.4995 2.24951C9.35304 2.24951 2.74902 8.85346 2.74902 16.9998C2.74902 25.1462 9.35304 31.7502 17.4995 31.7502Z" stroke="#403D37" stroke-width="3" stroke-linecap="round" stroke-linejoin="round"/>
<path d="M17.4998 22.8999C20.7584 22.8999 23.4 20.2583 23.4 16.9997C23.4 13.7412 20.7584 11.0996 17.4998 11.0996C14.2412 11.0996 11.5996 13.7412 11.5996 16.9997C11.5996 20.2583 14.2412 22.8999 17.4998 22.8999Z" stroke="#403D37" stroke-width="3" stroke-linecap="round" stroke-linejoin="round"/>
<path d="M31.0253 11.0996H17.4991M5.625 8.23804L12.3955 19.9498M15.8471 31.6616L22.6028 19.9498" stroke="#403D37" stroke-width="3" stroke-linecap="round" stroke-linejoin="round"/>
</svg>
