<svg width="31" height="18" viewBox="0 0 31 18" fill="none" xmlns="http://www.w3.org/2000/svg">
<path fill-rule="evenodd" clip-rule="evenodd" d="M12.3883 17.1941C12.3883 17.575 12.6971 17.8838 13.078 17.8838H17.9055C18.2864 17.8838 18.5952 17.575 18.5952 17.1941V13.0119C18.5952 12.631 18.904 12.3223 19.2849 12.3223H23.854C24.2349 12.3223 24.5437 12.0135 24.5437 11.6326V7.01339C24.5437 6.6325 24.8525 6.32373 25.2333 6.32373H29.8025C30.1834 6.32373 30.4922 6.01497 30.4922 5.63408V0.806492C30.4922 0.425606 30.1834 0.116837 29.8025 0.116837H24.9749C24.594 0.116837 24.2853 0.425606 24.2853 0.806492V5.42571C24.2853 5.8066 23.9765 6.11537 23.5956 6.11537H19.0264C18.6456 6.11537 18.3368 6.42414 18.3368 6.80503V10.9872C18.3368 11.3681 18.028 11.6769 17.6471 11.6769H13.337C12.9561 11.6769 12.6473 11.3681 12.6473 10.9872V6.80503C12.6473 6.42414 12.3386 6.11537 11.9577 6.11537H7.40534C7.02446 6.11537 6.71569 5.8066 6.71569 5.42571V0.806C6.71569 0.425114 6.40692 0.116344 6.02603 0.116344H1.19844C0.817559 0.116344 0.508789 0.425114 0.508789 0.806V5.63359C0.508789 6.01447 0.817558 6.32324 1.19844 6.32324H5.75077C6.13166 6.32324 6.44043 6.63201 6.44043 7.0129V11.6326C6.44043 12.0135 6.7492 12.3223 7.13008 12.3223H11.6986C12.0795 12.3223 12.3883 12.631 12.3883 13.0119V17.1941Z" fill="#1A1717"/>
</svg>
