<svg width="55" height="38" viewBox="0 0 55 38" fill="none" xmlns="http://www.w3.org/2000/svg">
<path d="M6.16927 37.6654C4.7026 37.6654 3.44749 37.1436 2.40394 36.1C1.36038 35.0565 0.837715 33.8005 0.835938 32.332V5.66536C0.835938 4.1987 1.3586 2.94359 2.40394 1.90003C3.44927 0.856475 4.70438 0.333809 6.16927 0.332031H48.8359C50.3026 0.332031 51.5586 0.854697 52.6039 1.90003C53.6493 2.94536 54.1711 4.20048 54.1693 5.66536V32.332C54.1693 33.7987 53.6475 35.0547 52.6039 36.1C51.5604 37.1454 50.3044 37.6671 48.8359 37.6654H6.16927ZM16.8359 29.6654H38.1693V24.332H16.8359V29.6654ZM8.83594 21.6654H14.1693V16.332H8.83594V21.6654ZM16.8359 21.6654H22.1693V16.332H16.8359V21.6654ZM24.8359 21.6654H30.1693V16.332H24.8359V21.6654ZM32.8359 21.6654H38.1693V16.332H32.8359V21.6654ZM40.8359 21.6654H46.1693V16.332H40.8359V21.6654ZM8.83594 13.6654H14.1693V8.33203H8.83594V13.6654ZM16.8359 13.6654H22.1693V8.33203H16.8359V13.6654ZM24.8359 13.6654H30.1693V8.33203H24.8359V13.6654ZM32.8359 13.6654H38.1693V8.33203H32.8359V13.6654ZM40.8359 13.6654H46.1693V8.33203H40.8359V13.6654Z" fill="white"/>
</svg>
