<svg width="64" height="64" viewBox="0 0 64 64" fill="none" xmlns="http://www.w3.org/2000/svg">
<path d="M18 16.9621C21.778 13.7604 26.6743 11.9931 31.7469 12C35.503 11.9986 39.1881 12.9673 42.4048 14.8015C45.6216 16.6357 48.2477 19.2659 50 22.4082H31.7469C29.8479 22.4079 27.9912 22.9386 26.4102 23.9335C24.8292 24.9284 23.5944 26.3432 22.8611 28L18 16.9621Z" fill="white"/>
<path d="M16.8192 19C14.6514 21.5188 13.1515 24.5144 12.4504 27.7254C11.7493 30.9364 11.8682 34.2651 12.7969 37.4212C13.7256 40.5773 15.4357 43.4647 17.7782 45.8316C20.1206 48.1985 23.024 49.9729 26.2352 51L34 41.1938C31.6113 41.5067 29.1885 40.9419 27.2065 39.6104C25.2245 38.2788 23.8263 36.2765 23.2862 33.9961C23.2324 33.9186 23.187 33.836 23.1509 33.7494L16.8192 19Z" fill="white"/>
<path d="M29 51.7104C32.3776 52.295 35.8504 51.9912 39.0729 50.829C42.2954 49.6669 45.1551 47.6871 47.3673 45.0866C49.5795 42.4861 51.0671 39.3557 51.6819 36.007C52.2966 32.6583 52.0172 29.2081 50.8714 26C50.809 26.0088 50.746 26.0131 50.683 26.013H38.775C39.6464 26.859 40.3385 27.8695 40.8104 28.9851C41.2824 30.1007 41.5247 31.2988 41.523 32.5088C41.5294 34.8322 40.6365 37.0693 39.0289 38.7578L29 51.7104Z" fill="white"/>
<path d="M26 32C26 30.4087 26.6321 28.8826 27.7574 27.7574C28.8826 26.6321 30.4087 26 32 26C33.5913 26 35.1174 26.6321 36.2426 27.7574C37.3679 28.8826 38 30.4087 38 32C38 33.5913 37.3679 35.1174 36.2426 36.2426C35.1174 37.3679 33.5913 38 32 38C30.4087 38 28.8826 37.3679 27.7574 36.2426C26.6321 35.1174 26 33.5913 26 32Z" fill="white"/>
</svg>
