<svg width="42" height="40" viewBox="0 0 42 40" fill="none" xmlns="http://www.w3.org/2000/svg">
<path d="M6 4.96212C9.77801 1.7604 14.6743 -0.0069494 19.7469 2.05372e-05C23.503 -0.00138018 27.1881 0.967279 30.4048 2.8015C33.6216 4.63572 36.2477 7.26587 38 10.4082H19.7469C17.8479 10.4079 15.9912 10.9386 14.4102 11.9335C12.8292 12.9284 11.5944 14.3432 10.8611 16L6 4.96212Z" fill="white"/>
<path d="M4.8192 7C2.6514 9.51882 1.15149 12.5144 0.450373 15.7254C-0.250749 18.9364 -0.13178 22.2651 0.796896 25.4212C1.72557 28.5773 3.43574 31.4647 5.77815 33.8316C8.12057 36.1985 11.024 37.9729 14.2352 39L22 29.1938C19.6113 29.5067 17.1885 28.9419 15.2065 27.6104C13.2245 26.2788 11.8263 24.2765 11.2862 21.9961C11.2324 21.9186 11.187 21.836 11.1509 21.7494L4.8192 7Z" fill="white"/>
<path d="M17 39.7104C20.3776 40.295 23.8504 39.9912 27.0729 38.829C30.2954 37.6669 33.1551 35.6871 35.3673 33.0866C37.5795 30.4861 39.0671 27.3557 39.6819 24.007C40.2966 20.6583 40.0172 17.2081 38.8714 14C38.809 14.0088 38.746 14.0131 38.683 14.013H26.775C27.6464 14.859 28.3385 15.8695 28.8104 16.9851C29.2824 18.1007 29.5247 19.2988 29.523 20.5088C29.5294 22.8322 28.6365 25.0693 27.0289 26.7578L17 39.7104Z" fill="white"/>
<path d="M14 20C14 18.4087 14.6321 16.8826 15.7574 15.7574C16.8826 14.6321 18.4087 14 20 14C21.5913 14 23.1174 14.6321 24.2426 15.7574C25.3679 16.8826 26 18.4087 26 20C26 21.5913 25.3679 23.1174 24.2426 24.2426C23.1174 25.3679 21.5913 26 20 26C18.4087 26 16.8826 25.3679 15.7574 24.2426C14.6321 23.1174 14 21.5913 14 20Z" fill="white"/>
</svg>
