<svg width="9" height="13" viewBox="0 0 9 13" fill="none" xmlns="http://www.w3.org/2000/svg">
<path fill-rule="evenodd" clip-rule="evenodd" d="M0.804688 0.746896C0.804688 0.51993 0.98868 0.335938 1.21565 0.335938H2.85948C3.08645 0.335938 3.27044 0.51993 3.27044 0.746896V2.39073C3.27044 2.6177 3.45443 2.80169 3.6814 2.80169H5.32523C5.5522 2.80169 5.73619 2.98568 5.73619 3.21265V4.85648C5.73619 5.08345 5.92018 5.26744 6.14715 5.26744H7.79098C8.01795 5.26744 8.20194 5.45143 8.20194 5.6784V7.32223C8.20194 7.5492 8.01795 7.73319 7.79098 7.73319H6.14715C5.92018 7.73319 5.73619 7.91718 5.73619 8.14415V9.78799C5.73619 10.015 5.5522 10.1989 5.32523 10.1989H3.6814C3.45443 10.1989 3.27044 10.3829 3.27044 10.6099V12.2537C3.27044 12.4807 3.08645 12.6647 2.85948 12.6647H1.21565C0.98868 12.6647 0.804688 12.4807 0.804688 12.2537V10.1989V7.73319V5.26744V2.80169V0.746896Z" fill="#939597"/>
</svg>
