<svg width="23" height="21" viewBox="0 0 23 21" fill="none" xmlns="http://www.w3.org/2000/svg">
<path d="M3.28571 0.583333C3.28571 0.261167 3.53089 0 3.83333 0H9.30952C9.61197 0 9.85714 0.261167 9.85714 0.583333V2.91667C9.85714 3.23883 10.1023 3.5 10.4048 3.5H12.5952C12.8977 3.5 13.1429 3.23883 13.1429 2.91667V0.583333C13.1429 0.261167 13.388 0 13.6905 0H19.1667C19.4691 0 19.7143 0.261167 19.7143 0.583333V2.91667C19.7143 3.23883 19.9595 3.5 20.2619 3.5H22.4524C22.7548 3.5 23 3.76117 23 4.08333V9.91667C23 10.2388 22.7548 10.5 22.4524 10.5H20.2619C19.9595 10.5 19.7143 10.7612 19.7143 11.0833V13.4167C19.7143 13.7388 19.4691 14 19.1667 14H16.9762C16.6737 14 16.4286 14.2612 16.4286 14.5833V16.9167C16.4286 17.2388 16.1834 17.5 15.881 17.5H13.6905C13.388 17.5 13.1429 17.7612 13.1429 18.0833V20.4167C13.1429 20.7388 12.8977 21 12.5952 21H10.4048C10.1023 21 9.85714 20.7388 9.85714 20.4167V18.0833C9.85714 17.7612 9.61197 17.5 9.30952 17.5H7.11905C6.81661 17.5 6.57143 17.2388 6.57143 16.9167V14.5833C6.57143 14.2612 6.32625 14 6.02381 14H3.83333C3.53089 14 3.28571 13.7388 3.28571 13.4167V11.0833C3.28571 10.7612 3.04054 10.5 2.7381 10.5H0.547619C0.245177 10.5 0 10.2388 0 9.91667V4.08333C0 3.76117 0.245177 3.5 0.547619 3.5H2.7381C3.04054 3.5 3.28571 3.23883 3.28571 2.91667V0.583333Z" fill="url(#paint0_linear_549_4574)"/>
<defs>
<linearGradient id="paint0_linear_549_4574" x1="11.5" y1="0" x2="11.5" y2="21" gradientUnits="userSpaceOnUse">
<stop offset="0.5099" stop-color="#20C9FF"/>
<stop offset="0.51" stop-color="#FFE815"/>
</linearGradient>
</defs>
</svg>
