<svg width="58" height="58" viewBox="0 0 58 58" fill="none" xmlns="http://www.w3.org/2000/svg">
<g clip-path="url(#clip0_757_1883)">
<path d="M57.3018 3.75926H54.9389C54.7539 3.75855 54.5768 3.68477 54.446 3.554C54.3152 3.42322 54.2414 3.24605 54.2407 3.06111V0.698148C54.24 0.513206 54.1662 0.33604 54.0355 0.205264C53.9047 0.0744892 53.7275 0.000707246 53.5426 0H35.0685C34.8836 0.000707246 34.7064 0.0744892 34.5756 0.205264C34.4449 0.33604 34.3711 0.513206 34.3704 0.698148V4.13519C34.3711 4.32013 34.4449 4.49729 34.5756 4.62807C34.7064 4.75884 34.8836 4.83263 35.0685 4.83333H52.4685C52.6535 4.83404 52.8306 4.90782 52.9614 5.0386C53.0922 5.16937 53.166 5.34654 53.1667 5.53148V22.9315C53.1674 23.1164 53.2412 23.2936 53.3719 23.4244C53.5027 23.5551 53.6799 23.6289 53.8648 23.6296H57.3018C57.4868 23.6289 57.664 23.5551 57.7947 23.4244C57.9255 23.2936 57.9993 23.1164 58 22.9315V4.45741C57.9993 4.27246 57.9255 4.0953 57.7947 3.96452C57.664 3.83375 57.4868 3.75997 57.3018 3.75926ZM3.75926 0.698148V3.06111C3.75855 3.24605 3.68477 3.42322 3.554 3.554C3.42322 3.68477 3.24605 3.75855 3.06111 3.75926H0.698148C0.513206 3.75997 0.33604 3.83375 0.205264 3.96452C0.0744892 4.0953 0.000707245 4.27246 0 4.45741V22.9315C0.000707245 23.1164 0.0744892 23.2936 0.205264 23.4244C0.33604 23.5551 0.513206 23.6289 0.698148 23.6296H4.13519C4.32013 23.6289 4.49729 23.5551 4.62807 23.4244C4.75884 23.2936 4.83263 23.1164 4.83333 22.9315V5.53148C4.83404 5.34654 4.90782 5.16937 5.0386 5.0386C5.16937 4.90782 5.34654 4.83404 5.53148 4.83333H22.9315C23.1164 4.83263 23.2936 4.75884 23.4244 4.62807C23.5551 4.49729 23.6289 4.32013 23.6296 4.13519V0.698148C23.6289 0.513206 23.5551 0.33604 23.4244 0.205264C23.2936 0.0744892 23.1164 0.000707246 22.9315 0H4.45741C4.27246 0.000707246 4.0953 0.0744892 3.96452 0.205264C3.83375 0.33604 3.75997 0.513206 3.75926 0.698148ZM53.1667 35.0685V52.4685C53.166 52.6535 53.0922 52.8306 52.9614 52.9614C52.8306 53.0922 52.6535 53.166 52.4685 53.1667H35.0685C34.8836 53.1674 34.7064 53.2412 34.5756 53.3719C34.4449 53.5027 34.3711 53.6799 34.3704 53.8648V57.3019C34.3711 57.4868 34.4449 57.664 34.5756 57.7947C34.7064 57.9255 34.8836 57.9993 35.0685 58H53.5426C53.7275 57.9993 53.9047 57.9255 54.0355 57.7947C54.1662 57.664 54.24 57.4868 54.2407 57.3019V54.9389C54.2414 54.754 54.3152 54.5768 54.446 54.446C54.5768 54.3152 54.7539 54.2415 54.9389 54.2407H57.3018C57.4868 54.24 57.664 54.1663 57.7947 54.0355C57.9255 53.9047 57.9993 53.7275 58 53.5426V35.0685C57.9993 34.8836 57.9255 34.7064 57.7947 34.5756C57.664 34.4449 57.4868 34.3711 57.3018 34.3704H53.8648C53.6799 34.3711 53.5027 34.4449 53.3719 34.5756C53.2412 34.7064 53.1674 34.8836 53.1667 35.0685ZM4.83333 52.4685V35.0148C4.82982 34.8427 4.75896 34.6788 4.63596 34.5583C4.51297 34.4378 4.34764 34.3703 4.17546 34.3704H0.657871C0.483392 34.3704 0.31606 34.4397 0.192686 34.5631C0.0693111 34.6864 0 34.8538 0 35.0282V53.556C0.000707245 53.741 0.0744892 53.9181 0.205264 54.0489C0.33604 54.1797 0.513206 54.2535 0.698148 54.2542H3.06111C3.24605 54.2549 3.42322 54.3287 3.554 54.4594C3.68477 54.5902 3.75855 54.7674 3.75926 54.9523V57.3153C3.75997 57.5002 3.83375 57.6774 3.96452 57.8082C4.0953 57.9389 4.27246 58.0127 4.45741 58.0134H22.9315C23.1164 58.0127 23.2936 57.9389 23.4244 57.8082C23.5551 57.6774 23.6289 57.5002 23.6296 57.3153V53.8648C23.6289 53.6799 23.5551 53.5027 23.4244 53.3719C23.2936 53.2412 23.1164 53.1674 22.9315 53.1667H5.53148C5.34654 53.166 5.16937 53.0922 5.0386 52.9614C4.90782 52.8306 4.83404 52.6535 4.83333 52.4685Z" fill="url(#paint0_linear_757_1883)"/>
<path d="M37.2583 30.0992V27.6288C37.2573 27.3906 40.2273 25.5491 40.7361 25.0403C40.7959 24.9803 40.8433 24.9091 40.8755 24.8308C40.9078 24.7525 40.9243 24.6685 40.9241 24.5838V18.8725C40.9234 18.7018 40.8552 18.5382 40.7345 18.4175C40.6138 18.2968 40.4503 18.2287 40.2796 18.228H37.8092C37.6385 18.2273 37.475 18.1592 37.3543 18.0385C37.2336 17.9178 37.1655 17.7543 37.1648 17.5836V15.1132C37.1641 14.9425 37.096 14.779 36.9753 14.6583C36.8546 14.5376 36.6911 14.4695 36.5204 14.4688H20.4037C20.233 14.4695 20.0695 14.5376 19.9488 14.6583C19.8281 14.779 19.76 14.9425 19.7592 15.1132V17.5836C19.7585 17.7543 19.6904 17.9178 19.5697 18.0385C19.449 18.1592 19.2855 18.2273 19.1148 18.228H16.6444C16.4737 18.2287 16.3102 18.2968 16.1895 18.4175C16.0688 18.5382 16.0007 18.7018 16 18.8725V39.1241C16.0007 39.2948 16.0688 39.4583 16.1895 39.579C16.3102 39.6997 16.4737 39.7679 16.6444 39.7686H19.1148C19.2855 39.7693 19.449 39.8374 19.5697 39.9581C19.6904 40.0788 19.7585 40.2423 19.7592 40.413V42.8834C19.76 43.0541 19.8281 43.2176 19.9488 43.3383C20.0695 43.459 20.233 43.5271 20.4037 43.5278H34.5731C34.6578 43.528 34.7418 43.5115 34.8201 43.4793C34.8984 43.447 34.9696 43.3997 35.0296 43.3399L40.8135 37.556C40.8733 37.496 40.9207 37.4248 40.9529 37.3464C40.9852 37.2681 41.0017 37.1842 41.0015 37.0995V31.3881C41.0008 31.2174 40.9326 31.0539 40.8119 30.9332C40.6912 30.8125 40.5277 30.7444 40.357 30.7437H37.8866C37.7188 30.7388 37.5593 30.6688 37.4421 30.5486C37.3248 30.4283 37.2589 30.2672 37.2583 30.0992ZM21.2119 18.7113H35.7121C35.8828 18.7121 36.0463 18.7802 36.167 18.9009C36.2877 19.0216 36.3558 19.1851 36.3566 19.3558V26.1278C36.3558 26.2985 36.2877 26.462 36.167 26.5827C36.0463 26.7034 35.8828 26.7716 35.7121 26.7723H21.2119C21.0412 26.7716 20.8777 26.7034 20.757 26.5827C20.6363 26.462 20.5682 26.2985 20.5675 26.1278V19.3558C20.5682 19.1851 20.6363 19.0216 20.757 18.9009C20.8777 18.7802 21.0412 18.7121 21.2119 18.7113ZM36.0124 39.5188H20.9944C20.8237 39.5181 20.6602 39.45 20.5395 39.3293C20.4188 39.2086 20.3507 39.0451 20.35 38.8744V31.6647C20.3507 31.494 20.4188 31.3305 20.5395 31.2098C20.6602 31.0891 20.8237 31.0209 20.9944 31.0202H36.0124C36.1831 31.0209 36.3466 31.0891 36.4673 31.2098C36.588 31.3305 36.6561 31.494 36.6568 31.6647V38.8744C36.6561 39.0451 36.588 39.2086 36.4673 39.3293C36.3466 39.45 36.1831 39.5181 36.0124 39.5188Z" fill="url(#paint1_linear_757_1883)"/>
</g>
<defs>
<linearGradient id="paint0_linear_757_1883" x1="0" y1="0" x2="56.6447" y2="8.76189" gradientUnits="userSpaceOnUse">
<stop stop-color="#F4E547"/>
<stop offset="0.54" stop-color="#F4C842"/>
<stop offset="1" stop-color="#EE8D48"/>
</linearGradient>
<linearGradient id="paint1_linear_757_1883" x1="16" y1="14.4688" x2="40.5662" y2="17.7388" gradientUnits="userSpaceOnUse">
<stop stop-color="#F4E547"/>
<stop offset="0.54" stop-color="#F4C842"/>
<stop offset="1" stop-color="#EE8D48"/>
</linearGradient>
<clipPath id="clip0_757_1883">
<rect width="58" height="58" fill="white"/>
</clipPath>
</defs>
</svg>
