<svg width="18" height="20" viewBox="0 0 18 20" fill="none" xmlns="http://www.w3.org/2000/svg">
<path d="M13 6.245V13.5C12.9997 14.85 12.579 16.1665 11.7964 17.2666C11.0138 18.3666 9.9081 19.1957 8.6328 19.6387C7.3575 20.0817 5.97591 20.1166 4.67988 19.7385C3.38384 19.3605 2.23768 18.5883 1.40054 17.5291C0.563391 16.47 0.0768126 15.1764 0.00836286 13.8281C-0.0600869 12.4798 0.29299 11.1436 1.01857 10.0052C1.74414 8.86667 2.80621 7.98235 4.0573 7.475C5.30838 6.96766 6.6864 6.86245 8 7.174V10.337C7.31482 10.012 6.54261 9.91831 5.7996 10.0701C5.05658 10.2218 4.38296 10.6108 3.8801 11.1785C3.37725 11.7461 3.07237 12.4618 3.01135 13.2177C2.95033 13.9736 3.13648 14.7288 3.54177 15.3698C3.94706 16.0108 4.54957 16.5028 5.25863 16.7717C5.96768 17.0407 6.74492 17.0721 7.47336 16.8612C8.2018 16.6503 8.84203 16.2085 9.29771 15.6023C9.75338 14.9961 9.99985 14.2584 10 13.5V0H13C13 1.32608 13.5268 2.59785 14.4645 3.53553C15.4022 4.47322 16.6739 5 18 5V8C16.1819 8.0024 14.4177 7.38316 13 6.245Z" fill="white"/>
</svg>
