<svg width="31" height="18" viewBox="0 0 31 18" fill="none" xmlns="http://www.w3.org/2000/svg">
<path fill-rule="evenodd" clip-rule="evenodd" d="M12.3873 17.1932C12.3873 17.574 12.6961 17.8828 13.077 17.8828H17.9046C18.2855 17.8828 18.5942 17.574 18.5942 17.1932V13.0109C18.5942 12.6301 18.903 12.3213 19.2839 12.3213H23.8531C24.2339 12.3213 24.5427 12.0125 24.5427 11.6316V7.01241C24.5427 6.63153 24.8515 6.32276 25.2324 6.32276H29.8015C30.1824 6.32276 30.4912 6.01399 30.4912 5.6331V0.805515C30.4912 0.424629 30.1824 0.11586 29.8015 0.11586H24.9739C24.5931 0.11586 24.2843 0.424629 24.2843 0.805515V5.42474C24.2843 5.80562 23.9755 6.11439 23.5946 6.11439H19.0255C18.6446 6.11439 18.3358 6.42316 18.3358 6.80405V10.9863C18.3358 11.3671 18.027 11.6759 17.6462 11.6759H13.336C12.9551 11.6759 12.6464 11.3671 12.6464 10.9863V6.80405C12.6464 6.42316 12.3376 6.11439 11.9567 6.11439H7.40437C7.02348 6.11439 6.71471 5.80562 6.71471 5.42474V0.805023C6.71471 0.424137 6.40594 0.115368 6.02506 0.115368H1.19747C0.816582 0.115368 0.507812 0.424137 0.507812 0.805023V5.63261C0.507812 6.0135 0.816582 6.32227 1.19747 6.32227H5.7498C6.13068 6.32227 6.43945 6.63103 6.43945 7.01192V11.6316C6.43945 12.0125 6.74822 12.3213 7.12911 12.3213H11.6977C12.0786 12.3213 12.3873 12.6301 12.3873 13.0109V17.1932Z" fill="white"/>
</svg>
