<svg width="73" height="121" viewBox="0 0 73 121" fill="none" xmlns="http://www.w3.org/2000/svg">
<path fill-rule="evenodd" clip-rule="evenodd" d="M66.1035 73C69.9123 73 73 69.9123 73 66.1035L73 54.8965C73 51.0877 69.9123 48 66.1035 48L55.8965 48C52.0877 48 49 44.9123 49 41.1035L49 30.8965C49 27.0877 45.9123 24 42.1035 24L31.8965 24C28.0877 24 25 20.9123 25 17.1035L25 6.8965C25 3.08767 21.9123 2.23311e-06 18.1035 2.3996e-06L6.8965 2.88948e-06C3.08767 3.05597e-06 1.34966e-07 3.08767 3.01455e-07 6.8965L7.91329e-07 18.1035C9.57818e-07 21.9123 3.08767 25 6.8965 25L17.1035 25C20.9123 25 24 28.0877 24 31.8965L24 42.1035C24 45.9123 27.0877 49 30.8965 49L41.1035 49C44.9123 49 48 52.0877 48 55.8965L48 65.1035C48 68.9123 44.9123 72 41.1035 72L30.8965 72C27.0877 72 24 75.0877 24 78.8965L24 89.1035C24 92.9123 20.9123 96 17.1035 96L6.8965 96C3.08767 96 4.33126e-06 99.0877 4.49775e-06 102.897L4.98762e-06 114.104C5.15411e-06 117.912 3.08767 121 6.8965 121L18.1035 121C21.9123 121 25 117.912 25 114.104L25 103.897C25 100.088 28.0877 97 31.8965 97L42.1035 97C45.9123 97 49 93.9123 49 90.1035L49 79.8965C49 76.0877 52.0877 73 55.8965 73L66.1035 73Z" fill="white"/>
</svg>
