<svg width="54" height="48" viewBox="0 0 54 48" fill="none" xmlns="http://www.w3.org/2000/svg">
<path d="M51.4559 0.667969C52.0426 0.667969 52.567 0.890191 53.0293 1.33464C53.4559 1.7613 53.6693 2.27686 53.6693 2.8813V45.1213C53.6693 45.7257 53.4559 46.2413 53.0293 46.668C52.567 47.1124 52.0426 47.3346 51.4559 47.3346H15.8826C15.2959 47.3346 14.7715 47.1124 14.3093 46.668C13.8826 46.2413 13.6693 45.7257 13.6693 45.1213V37.3346H2.54927C1.9626 37.3346 1.43816 37.1213 0.975937 36.6946C0.549271 36.2324 0.335938 35.708 0.335938 35.1213V12.8813C0.335938 12.2946 0.549271 11.7702 0.975937 11.308C1.43816 10.8813 1.9626 10.668 2.54927 10.668H13.6693V2.8813C13.6693 2.27686 13.8826 1.7613 14.3093 1.33464C14.7715 0.890191 15.2959 0.667969 15.8826 0.667969M13.6693 26.828L16.8159 32.748H21.5893L16.3359 24.1613L21.4826 15.708H16.9226L14.0159 21.068L13.9093 21.228L13.8293 21.4146C13.367 20.4724 12.8693 19.5213 12.3359 18.5613C11.8915 17.6191 11.4204 16.668 10.9226 15.708H6.09594L11.1359 24.2146L5.66927 32.748H10.4159M32.0159 44.0013V37.3346H17.0026V44.0013M32.0159 34.0013V25.6813H27.0026V34.0013M32.0159 22.348V14.0013H27.0026V22.348M32.0159 10.668V4.0013H17.0026V10.668M50.3359 44.0013V37.3346H35.3493V44.0013M50.3359 34.0013V25.6813H35.3493V34.0013M50.3359 22.348V14.0013H35.3493V22.348M50.3359 10.668V4.0013H35.3493V10.668H50.3359Z" fill="white"/>
</svg>
