<svg width="52" height="38" viewBox="0 0 52 38" fill="none" xmlns="http://www.w3.org/2000/svg">
<path d="M29.8651 34.8017L17.1803 1.48642C17.0141 1.0498 16.7166 0.673544 16.3275 0.40793C15.9383 0.142317 15.4762 0 15.0027 0C14.5293 0 14.0672 0.142317 13.678 0.40793C13.2889 0.673544 12.9914 1.0498 12.8252 1.48642L0.140424 34.8017C-0.0693746 35.3691 -0.0432418 35.995 0.213138 36.5435C0.469517 37.0919 0.935403 37.5185 1.50945 37.7303C2.0835 37.9422 2.71928 37.9223 3.27849 37.6749C3.83769 37.4275 4.27509 36.9726 4.49553 36.4092L8.31787 26.3709C8.33293 26.3312 8.35992 26.297 8.39524 26.2728C8.43056 26.2486 8.47253 26.2356 8.51554 26.2355H21.49C21.533 26.2356 21.5749 26.2486 21.6103 26.2728C21.6456 26.297 21.6726 26.3312 21.6876 26.3709L25.51 36.4092C25.7304 36.9726 26.1678 37.4275 26.727 37.6749C27.2862 37.9223 27.922 37.9422 28.496 37.7303C29.0701 37.5185 29.536 37.0919 29.7924 36.5435C30.0487 35.995 30.0749 35.3691 29.8651 34.8017ZM10.2206 21.3715L14.8051 9.33113C14.8203 9.29163 14.8473 9.25761 14.8827 9.23361C14.918 9.20961 14.9598 9.19675 15.0027 9.19675C15.0456 9.19675 15.0875 9.20961 15.1228 9.23361C15.1581 9.25761 15.1852 9.29163 15.2004 9.33113L19.7849 21.3736C19.7968 21.405 19.8009 21.4389 19.7967 21.4722C19.7924 21.5056 19.7801 21.5374 19.7607 21.565C19.7412 21.5926 19.7153 21.6152 19.6851 21.6308C19.6549 21.6464 19.6213 21.6546 19.5872 21.6547H10.4183C10.3842 21.6546 10.3506 21.6464 10.3204 21.6308C10.2902 21.6152 10.2643 21.5926 10.2448 21.565C10.2254 21.5374 10.2131 21.5056 10.2088 21.4722C10.2046 21.4389 10.2087 21.405 10.2206 21.3736V21.3715ZM41.2993 9.99431C36.8893 9.96308 32.9401 12.4794 31.2572 16.3867C31.0161 16.9458 31.0104 17.5764 31.2414 18.1397C31.4723 18.703 31.921 19.1528 32.4887 19.3903C33.0564 19.6277 33.6967 19.6334 34.2686 19.4059C34.8405 19.1784 35.2972 18.7365 35.5383 18.1774C36.477 16.0025 38.6852 14.5918 41.1746 14.5752C44.591 14.5523 47.3489 17.3341 47.3489 20.7021C47.3489 20.7426 47.333 20.7815 47.3044 20.8107C47.2758 20.8398 47.2368 20.8569 47.1956 20.8582C44.8786 20.9217 42.1302 21.0737 39.6778 21.358C33.8904 22.0284 30.4359 25.1361 30.4359 29.6712C30.4359 32.0855 31.3619 34.252 33.0437 35.7804C34.6219 37.2119 36.7783 38 39.1038 38C42.3807 38 45.202 37.1671 47.3426 35.5826H47.3489C47.3476 35.8833 47.4064 36.1814 47.5221 36.4598C47.6377 36.7382 47.8079 36.9914 48.0229 37.205C48.238 37.4186 48.4936 37.5884 48.7752 37.7047C49.0569 37.821 49.359 37.8816 49.6644 37.8829C49.9698 37.8842 50.2725 37.8262 50.5551 37.7123C50.8378 37.5984 51.0949 37.4308 51.3118 37.219C51.5286 37.0073 51.701 36.7555 51.8191 36.4781C51.9372 36.2007 51.9987 35.9031 52 35.6023V20.7146C52 14.8656 47.2432 10.037 41.2993 9.99431ZM39.1038 33.4191C37.2508 33.4191 35.087 32.4374 35.087 29.6712C35.087 28.5603 35.4918 27.7826 36.4009 27.1486C37.2857 26.5312 38.6419 26.0908 40.2211 25.9076C42.4537 25.6483 44.9589 25.5057 47.1068 25.4422C47.1355 25.4422 47.1639 25.4479 47.1903 25.459C47.2166 25.4701 47.2404 25.4864 47.2602 25.5068C47.28 25.5273 47.2953 25.5515 47.3053 25.578C47.3153 25.6044 47.3197 25.6326 47.3183 25.6608C47.0318 30.8789 44.3321 33.4191 39.1038 33.4191Z" fill="white"/>
</svg>
