<svg width="42" height="42" viewBox="0 0 42 42" fill="none" xmlns="http://www.w3.org/2000/svg">
<path d="M0 42V0H42V33.6H8.4L0 42ZM12.6 18.9C13.195 18.9 13.6941 18.6984 14.0973 18.2952C14.5005 17.892 14.7014 17.3936 14.7 16.8C14.6986 16.2064 14.497 15.708 14.0952 15.3048C13.6934 14.9016 13.195 14.7 12.6 14.7C12.005 14.7 11.5066 14.9016 11.1048 15.3048C10.703 15.708 10.5014 16.2064 10.5 16.8C10.4986 17.3936 10.7002 17.8927 11.1048 18.2973C11.5094 18.7019 12.0078 18.9028 12.6 18.9ZM21 18.9C21.595 18.9 22.0941 18.6984 22.4973 18.2952C22.9005 17.892 23.1014 17.3936 23.1 16.8C23.0986 16.2064 22.897 15.708 22.4952 15.3048C22.0934 14.9016 21.595 14.7 21 14.7C20.405 14.7 19.9066 14.9016 19.5048 15.3048C19.103 15.708 18.9014 16.2064 18.9 16.8C18.8986 17.3936 19.1002 17.8927 19.5048 18.2973C19.9094 18.7019 20.4078 18.9028 21 18.9ZM29.4 18.9C29.995 18.9 30.4941 18.6984 30.8973 18.2952C31.3005 17.892 31.5014 17.3936 31.5 16.8C31.4986 16.2064 31.297 15.708 30.8952 15.3048C30.4934 14.9016 29.995 14.7 29.4 14.7C28.805 14.7 28.3066 14.9016 27.9048 15.3048C27.503 15.708 27.3014 16.2064 27.3 16.8C27.2986 17.3936 27.5002 17.8927 27.9048 18.2973C28.3094 18.7019 28.8078 18.9028 29.4 18.9Z" fill="white"/>
</svg>
