<svg width="36" height="36" viewBox="0 0 36 36" fill="none" xmlns="http://www.w3.org/2000/svg">
<g clip-path="url(#clip0_746_2100)">
<path d="M0.078125 17.8945C0.0789783 18.1515 0.084909 18.4071 0.096429 18.6615V33.1643L4.10586 29.1549C7.38735 33.1716 12.3794 35.7371 17.9708 35.7371C23.7897 35.7371 28.9592 32.9596 32.227 28.6583L25.6551 22.0172C25.011 23.2083 24.0961 24.2314 22.9929 25.0041C21.8456 25.8994 20.2199 26.6315 17.971 26.6315C17.6994 26.6315 17.4897 26.5998 17.3356 26.54C14.5493 26.32 12.1341 24.7823 10.712 22.5505L15.364 17.8985C9.4717 17.9217 2.81528 17.9352 0.0786377 17.8956" fill="white"/>
<path d="M17.1552 0.018304C17.4096 0.00678404 17.6652 0.000853333 17.9222 0L17.9212 0.000511882C17.8815 2.73715 17.8951 9.39358 17.9182 15.2858L13.2662 10.6339C11.1036 12.0119 9.59271 14.3224 9.30101 16.9994H0.101562C0.358688 11.7713 2.86033 7.13343 6.66183 4.02773L2.6524 0.018304H17.1552Z" fill="white"/>
<path d="M3.99609 6.78323C3.91826 6.88135 3.84143 6.98031 3.76562 7.08009L3.99609 7.31298V6.78323Z" fill="white"/>
<path d="M18.9961 9.23184C21.6387 9.5449 23.9166 11.047 25.2806 13.1879L20.6287 17.8398C26.521 17.8167 33.1774 17.8031 35.914 17.8428L35.9145 17.8438C35.9137 17.5868 35.9077 17.3312 35.8962 17.0768V2.57402L31.8868 6.58345C28.7971 2.80158 24.1911 0.306179 18.9961 0.0273438V9.23184Z" fill="white"/>
</g>
<defs>
<clipPath id="clip0_746_2100">
<rect width="36" height="36" fill="white"/>
</clipPath>
</defs>
</svg>
