<svg width="46" height="36" viewBox="0 0 46 36" fill="none" xmlns="http://www.w3.org/2000/svg">
<path d="M46 8V29.2611C46.0001 30.98 45.3277 32.634 44.1202 33.8846C42.9128 35.1352 41.2618 35.8879 39.5048 35.9888L39.1 36H6.9C5.14002 36.0001 3.44652 35.3434 2.166 34.1641C0.885484 32.9849 0.114753 31.3724 0.0115003 29.6565L0 29.2611V8L21.7235 22.1449L21.9903 22.2931C22.3047 22.4432 22.6501 22.5212 23 22.5212C23.3499 22.5212 23.6953 22.4432 24.0097 22.2931L24.2765 22.1449L46 8Z" fill="white"/>
<path d="M39.1172 0C41.6039 0 43.7843 1.31589 45 3.29434L23 18L1 3.29434C1.57744 2.35434 2.37063 1.56637 3.31345 0.996128C4.25626 0.425883 5.32138 0.0898898 6.41999 0.01616L6.88278 0H39.1172Z" fill="white"/>
</svg>
