<svg width="52" height="52" viewBox="0 0 52 52" fill="none" xmlns="http://www.w3.org/2000/svg">
<path d="M2 24H9.33333H2ZM24 2V9.33333V2ZM13.7333 13.7333L8.35556 8.35556L13.7333 13.7333ZM34.2667 13.7333L39.6444 8.35556L34.2667 13.7333ZM13.7333 34.2667L8.35556 39.6444L13.7333 34.2667ZM24 24L46 31.3333L36.2222 36.2222L31.3333 46L24 24Z" fill="white"/>
<path d="M2 24H9.33333M24 2V9.33333M13.7333 13.7333L8.35556 8.35556M34.2667 13.7333L39.6444 8.35556M13.7333 34.2667L8.35556 39.6444M24 24L46 31.3333L36.2222 36.2222L31.3333 46L24 24Z" stroke="white" stroke-width="4" stroke-linecap="square"/>
</svg>
