<svg width="40" height="46" viewBox="0 0 40 46" fill="none" xmlns="http://www.w3.org/2000/svg">
<path d="M1.96875 29.5C3.03225 33.4692 5.37575 36.9766 8.63579 39.4781C11.8958 41.9796 15.8902 43.3356 19.9994 43.3356C24.1086 43.3356 28.103 41.9796 31.363 39.4781C34.6231 36.9766 36.9666 33.4692 38.0301 29.5" stroke="white" stroke-width="4"/>
<path d="M20 24.668L18.3333 26.748L20 28.0813L21.6667 26.748L20 24.668ZM5 16.0813L18.3333 26.748L21.6667 22.588L8.33333 11.9213L5 16.0813ZM21.6667 26.748L35 16.0813L31.6667 11.9213L18.3333 22.588L21.6667 26.748ZM22.6667 24.668V0.667969H17.3333V24.668H22.6667Z" fill="white"/>
</svg>
