<svg width="44" height="54" viewBox="0 0 44 54" fill="none" xmlns="http://www.w3.org/2000/svg">
<path d="M21.9974 14.212C33.7787 14.212 43.3307 11.1054 43.3307 7.27336C43.3307 3.4387 33.7787 0.332031 21.9974 0.332031C10.2161 0.332031 0.664062 3.4387 0.664062 7.27336C0.664062 11.1054 10.2161 14.212 21.9974 14.212ZM21.9974 53.6654C35.2321 53.6654 43.3307 49.1694 43.3307 46.724V34.98C43.1921 35.0654 43.0321 35.14 42.8907 35.22C42.247 35.5986 41.5839 35.943 40.9041 36.252C40.3885 36.4867 39.8552 36.7116 39.3041 36.9267C39.1387 36.9925 38.9707 37.0574 38.8001 37.1214C33.39 38.9488 27.71 39.8486 22.0001 39.7827C16.3067 39.8547 10.6401 38.956 5.20006 37.1214L4.69606 36.9267C3.92371 36.6306 3.16556 36.2986 2.42406 35.932C1.97766 35.7101 1.53916 35.4727 1.1094 35.22C0.968062 35.14 0.808062 35.0654 0.669395 34.98V46.724C0.664062 49.172 8.76273 53.6654 21.9974 53.6654ZM40.9041 16.524C40.3782 16.7662 39.8446 16.9912 39.3041 17.1987C39.1387 17.2663 38.9707 17.332 38.8001 17.396C33.39 19.2235 27.71 20.1233 22.0001 20.0574C16.3067 20.1294 10.6401 19.2307 5.20006 17.396L4.69606 17.1987C3.92376 16.9034 3.16561 16.5724 2.42406 16.2067C1.97762 15.9839 1.53913 15.7456 1.1094 15.492C0.962729 15.412 0.802729 15.3374 0.664062 15.252V26.9987C0.664062 29.444 8.76273 33.94 21.9974 33.94C35.2321 33.94 43.3307 29.444 43.3307 26.9987V15.2547C43.1921 15.3374 43.0321 15.412 42.8907 15.4947C42.247 15.8723 41.5838 16.2159 40.9041 16.524Z" fill="white"/>
</svg>
