<svg width="40" height="40" viewBox="0 0 40 40" fill="none" xmlns="http://www.w3.org/2000/svg">
<path d="M24 8H28V12H38C38.5304 12 39.0391 12.2107 39.4142 12.5858C39.7893 12.9609 40 13.4696 40 14V29L28 22L28.072 38.124L32.518 33.824L36.082 40H14C13.4696 40 12.9609 39.7893 12.5858 39.4142C12.2107 39.0391 12 38.5304 12 38V28H8V24H12V14C12 13.4696 12.2107 12.9609 12.5858 12.5858C12.9609 12.2107 13.4696 12 14 12H24V8ZM40 30.676V38C40.0002 38.2084 39.9678 38.4156 39.904 38.614L35.984 31.826L40 30.676ZM4 24V28H0V24H4ZM4 16V20H0V16H4ZM4 8V12H0V8H4ZM4 0V4H0V0H4ZM12 0V4H8V0H12ZM20 0V4H16V0H20ZM28 0V4H24V0H28Z" fill="white"/>
</svg>
