<svg width="64" height="64" viewBox="0 0 64 64" fill="none" xmlns="http://www.w3.org/2000/svg">
<path d="M14.0801 31.8931C14.0809 32.1501 14.0869 32.4057 14.0984 32.66V47.1629L18.1078 43.1534C21.3893 47.1701 26.3813 49.7356 31.9728 49.7356C37.7917 49.7356 42.9611 46.9582 46.229 42.6568L39.657 36.0157C39.013 37.2069 38.098 38.2299 36.9949 39.0026C35.8475 39.898 34.2218 40.63 31.973 40.63C31.7013 40.63 31.4916 40.5983 31.3376 40.5385C28.5512 40.3186 26.1361 38.7809 24.714 36.549L29.3659 31.8971C23.4737 31.9202 16.8172 31.9338 14.0806 31.8941" fill="white"/>
<path d="M31.1552 14.0189C31.4096 14.0074 31.6652 14.0015 31.9222 14.0006L31.9212 14.0011C31.8815 16.7378 31.8951 23.3942 31.9182 29.2865L27.2662 24.6345C25.1036 26.0125 23.5927 28.323 23.301 31H14.1016C14.3587 25.7719 16.8603 21.134 20.6618 18.0283L16.6524 14.0189H31.1552Z" fill="white"/>
<path d="M18 20.782C17.9222 20.8801 17.8453 20.9791 17.7695 21.0789L18 21.3118V20.782Z" fill="white"/>
<path d="M33 23.2306C35.6426 23.5437 37.9205 25.0458 39.2845 27.1866L34.6326 31.8386C40.5249 31.8155 47.1813 31.8019 49.9179 31.8416L49.9184 31.8426C49.9176 31.5856 49.9117 31.33 49.9001 31.0756V16.5728L45.8907 20.5822C42.801 16.8004 38.195 14.305 33 14.0261V23.2306Z" fill="white"/>
</svg>
