<svg width="151" height="89" viewBox="0 0 151 89" fill="none" xmlns="http://www.w3.org/2000/svg">
<rect x="0.5" y="0.5" width="150" height="88" rx="4.5" stroke="#272C30" stroke-dasharray="16 16"/>
<mask id="path-2-inside-1_594_91" fill="white">
<path d="M135 0H146C148.761 0 151 2.23858 151 5V16H135V0Z"/>
</mask>
<path d="M135 -1H146C149.314 -1 152 1.68629 152 5H150C150 2.79086 148.209 1 146 1H135V-1ZM151 16H135H151ZM135 16V0V16ZM146 -1C149.314 -1 152 1.68629 152 5V16H150V5C150 2.79086 148.209 1 146 1V-1Z" fill="url(#paint0_linear_594_91)" mask="url(#path-2-inside-1_594_91)"/>
<mask id="path-4-inside-2_594_91" fill="white">
<path d="M16 0H5C2.23858 0 0 2.23858 0 5V16H16V0Z"/>
</mask>
<path d="M16 -1H5C1.68629 -1 -1 1.68629 -1 5H1C1 2.79086 2.79086 1 5 1H16V-1ZM0 16H16H0ZM16 16V0V16ZM5 -1C1.68629 -1 -1 1.68629 -1 5V16H1V5C1 2.79086 2.79086 1 5 1V-1Z" fill="url(#paint1_linear_594_91)" mask="url(#path-4-inside-2_594_91)"/>
<path d="M16 -1H5C1.68629 -1 -1 1.68629 -1 5H1C1 2.79086 2.79086 1 5 1H16V-1ZM0 16H16H0ZM16 16V0V16ZM5 -1C1.68629 -1 -1 1.68629 -1 5V16H1V5C1 2.79086 2.79086 1 5 1V-1Z" fill="url(#paint2_linear_594_91)" mask="url(#path-4-inside-2_594_91)"/>
<mask id="path-6-inside-3_594_91" fill="white">
<path d="M135 89H146C148.761 89 151 86.7614 151 84V73H135V89Z"/>
</mask>
<path d="M135 90H146C149.314 90 152 87.3137 152 84H150C150 86.2091 148.209 88 146 88H135V90ZM151 73H135H151ZM135 73V89V73ZM146 90C149.314 90 152 87.3137 152 84V73H150V84C150 86.2091 148.209 88 146 88V90Z" fill="url(#paint3_linear_594_91)" mask="url(#path-6-inside-3_594_91)"/>
<mask id="path-8-inside-4_594_91" fill="white">
<path d="M16 89H5C2.23858 89 0 86.7614 0 84V73H16V89Z"/>
</mask>
<path d="M16 90H5C1.68629 90 -1 87.3137 -1 84H1C1 86.2091 2.79086 88 5 88H16V90ZM0 73H16H0ZM16 73V89V73ZM5 90C1.68629 90 -1 87.3137 -1 84V73H1V84C1 86.2091 2.79086 88 5 88V90Z" fill="url(#paint4_linear_594_91)" mask="url(#path-8-inside-4_594_91)"/>
<defs>
<linearGradient id="paint0_linear_594_91" x1="151" y1="1.14441e-05" x2="135" y2="16" gradientUnits="userSpaceOnUse">
<stop stop-color="#42DEF8"/>
<stop offset="0.5" stop-color="#5AFFC6"/>
<stop offset="1" stop-color="#2457F7"/>
</linearGradient>
<linearGradient id="paint1_linear_594_91" x1="192" y1="2.50339e-06" x2="-7.7486e-06" y2="64" gradientUnits="userSpaceOnUse">
<stop stop-color="#42DEF8"/>
<stop offset="0.5" stop-color="#5AFFC6"/>
<stop offset="1" stop-color="#2457F7"/>
</linearGradient>
<linearGradient id="paint2_linear_594_91" x1="16" y1="0" x2="-5.72205e-06" y2="16" gradientUnits="userSpaceOnUse">
<stop stop-color="#42DEF8"/>
<stop offset="0.5" stop-color="#5AFFC6"/>
<stop offset="1" stop-color="#2457F7"/>
</linearGradient>
<linearGradient id="paint3_linear_594_91" x1="151" y1="73" x2="135" y2="89" gradientUnits="userSpaceOnUse">
<stop stop-color="#42DEF8"/>
<stop offset="0.5" stop-color="#5AFFC6"/>
<stop offset="1" stop-color="#2457F7"/>
</linearGradient>
<linearGradient id="paint4_linear_594_91" x1="16" y1="73" x2="0.461439" y2="88.0234" gradientUnits="userSpaceOnUse">
<stop stop-color="#42DEF8"/>
<stop offset="0.5" stop-color="#5AFFC6"/>
<stop offset="1" stop-color="#2457F7"/>
</linearGradient>
</defs>
</svg>
