<svg width="200" height="89" viewBox="0 0 200 89" fill="none" xmlns="http://www.w3.org/2000/svg">
<rect x="0.5" y="0.5" width="199" height="88" rx="4.5" stroke="#BEBCBF" stroke-dasharray="16 16"/>
<mask id="path-2-inside-1_3666_4742" fill="white">
<path d="M184 89H195C197.761 89 200 86.7614 200 84V73H184V89Z"/>
</mask>
<path d="M184 90H195C198.314 90 201 87.3137 201 84H199C199 86.2091 197.209 88 195 88H184V90ZM200 73H184H200ZM184 73V89V73ZM195 90C198.314 90 201 87.3137 201 84V73H199V84C199 86.2091 197.209 88 195 88V90Z" fill="#FF7120" mask="url(#path-2-inside-1_3666_4742)"/>
<mask id="path-4-inside-2_3666_4742" fill="white">
<path d="M16 0H5C2.23858 0 0 2.23858 0 5V16H16V0Z"/>
</mask>
<path d="M16 -1H5C1.68629 -1 -1 1.68629 -1 5H1C1 2.79086 2.79086 1 5 1H16V-1ZM0 16H16H0ZM16 16V0V16ZM5 -1C1.68629 -1 -1 1.68629 -1 5V16H1V5C1 2.79086 2.79086 1 5 1V-1Z" fill="#FF7120" mask="url(#path-4-inside-2_3666_4742)"/>
</svg>
