<svg width="58" height="58" viewBox="0 0 58 58" fill="none" xmlns="http://www.w3.org/2000/svg">
<rect x="1" y="1" width="56" height="56" rx="5" fill="#FF7120"/>
<path fill-rule="evenodd" clip-rule="evenodd" d="M24.7547 4H8.48113H6.35849C5.05594 4 4 5.05594 4 6.35849V8.48113V24.7547H5.88679V8.48113C5.88679 7.04833 7.04833 5.88679 8.48113 5.88679H24.7547V4ZM33.0094 5.88679V4H49.5189H51.6415C52.9441 4 54 5.05594 54 6.35849V8.48113V24.7547H52.1132V8.48113C52.1132 7.04833 50.9516 5.88679 49.5189 5.88679H33.0094ZM33.0094 52.1132H49.5189C50.9516 52.1132 52.1132 50.9516 52.1132 49.5189V33.0094H54V49.5189V51.6415C54 52.9441 52.9441 54 51.6415 54H49.5189H33.0094V52.1132ZM5.88679 33.0094V49.5189C5.88679 50.9516 7.04833 52.1132 8.48113 52.1132H24.7547V54H8.48113H6.35849C5.05594 54 4 52.9441 4 51.6415V49.5189V33.0094H5.88679Z" fill="#FAF8F2"/>
<path d="M17 14H31.8981C37.6115 14 41.0064 16.8431 41.0064 21.514C41.0064 24.479 38.8949 27.1597 35.2516 27.6877L35.3344 27.7689C39.5159 28.2563 42 31.2619 42 34.8768C42 40.1162 37.8599 43 31.8981 43H17V14ZM18.5737 27.1597H31.8981C36.328 27.1597 39.1847 24.9664 39.1847 21.1891C39.1847 17.4118 36.2866 15.5434 31.6497 15.5434H18.5737V27.1597ZM18.5737 41.4566H31.8981C36.8249 41.4566 40.1783 39.2633 40.1783 34.8768C40.1783 30.7745 36.8663 28.7031 31.8981 28.7031H18.5737V41.4566Z" fill="#FAF8F2"/>
</svg>
