<svg width="121" height="58" viewBox="0 0 121 58" fill="none" xmlns="http://www.w3.org/2000/svg">
<g clip-path="url(#clip0_554_67)">
<path d="M57.3018 3.75926H54.9389C54.7539 3.75855 54.5768 3.68477 54.446 3.554C54.3152 3.42322 54.2414 3.24605 54.2407 3.06111V0.698148C54.24 0.513206 54.1662 0.33604 54.0355 0.205264C53.9047 0.0744892 53.7275 0.000707246 53.5426 0H35.0685C34.8836 0.000707246 34.7064 0.0744892 34.5756 0.205264C34.4449 0.33604 34.3711 0.513206 34.3704 0.698148V4.13519C34.3711 4.32013 34.4449 4.49729 34.5756 4.62807C34.7064 4.75884 34.8836 4.83263 35.0685 4.83333H52.4685C52.6535 4.83404 52.8306 4.90782 52.9614 5.0386C53.0922 5.16937 53.166 5.34654 53.1667 5.53148V22.9315C53.1674 23.1164 53.2412 23.2936 53.3719 23.4244C53.5027 23.5551 53.6799 23.6289 53.8648 23.6296H57.3018C57.4868 23.6289 57.664 23.5551 57.7947 23.4244C57.9255 23.2936 57.9993 23.1164 58 22.9315V4.45741C57.9993 4.27246 57.9255 4.0953 57.7947 3.96452C57.664 3.83375 57.4868 3.75997 57.3018 3.75926ZM3.75926 0.698148V3.06111C3.75855 3.24605 3.68477 3.42322 3.554 3.554C3.42322 3.68477 3.24605 3.75855 3.06111 3.75926H0.698148C0.513206 3.75997 0.33604 3.83375 0.205264 3.96452C0.0744892 4.0953 0.000707245 4.27246 0 4.45741V22.9315C0.000707245 23.1164 0.0744892 23.2936 0.205264 23.4244C0.33604 23.5551 0.513206 23.6289 0.698148 23.6296H4.13519C4.32013 23.6289 4.49729 23.5551 4.62807 23.4244C4.75884 23.2936 4.83263 23.1164 4.83333 22.9315V5.53148C4.83404 5.34654 4.90782 5.16937 5.0386 5.0386C5.16937 4.90782 5.34654 4.83404 5.53148 4.83333H22.9315C23.1164 4.83263 23.2936 4.75884 23.4244 4.62807C23.5551 4.49729 23.6289 4.32013 23.6296 4.13519V0.698148C23.6289 0.513206 23.5551 0.33604 23.4244 0.205264C23.2936 0.0744892 23.1164 0.000707246 22.9315 0H4.45741C4.27246 0.000707246 4.0953 0.0744892 3.96452 0.205264C3.83375 0.33604 3.75997 0.513206 3.75926 0.698148ZM53.1667 35.0685V52.4685C53.166 52.6535 53.0922 52.8306 52.9614 52.9614C52.8306 53.0922 52.6535 53.166 52.4685 53.1667H35.0685C34.8836 53.1674 34.7064 53.2412 34.5756 53.3719C34.4449 53.5027 34.3711 53.6799 34.3704 53.8648V57.3019C34.3711 57.4868 34.4449 57.664 34.5756 57.7947C34.7064 57.9255 34.8836 57.9993 35.0685 58H53.5426C53.7275 57.9993 53.9047 57.9255 54.0355 57.7947C54.1662 57.664 54.24 57.4868 54.2407 57.3019V54.9389C54.2414 54.754 54.3152 54.5768 54.446 54.446C54.5768 54.3152 54.7539 54.2415 54.9389 54.2407H57.3018C57.4868 54.24 57.664 54.1663 57.7947 54.0355C57.9255 53.9047 57.9993 53.7275 58 53.5426V35.0685C57.9993 34.8836 57.9255 34.7064 57.7947 34.5756C57.664 34.4449 57.4868 34.3711 57.3018 34.3704H53.8648C53.6799 34.3711 53.5027 34.4449 53.3719 34.5756C53.2412 34.7064 53.1674 34.8836 53.1667 35.0685ZM4.83333 52.4685V35.0148C4.82982 34.8427 4.75896 34.6788 4.63596 34.5583C4.51297 34.4378 4.34764 34.3703 4.17546 34.3704H0.657871C0.483392 34.3704 0.31606 34.4397 0.192686 34.5631C0.0693111 34.6864 0 34.8538 0 35.0282V53.556C0.000707245 53.741 0.0744892 53.9181 0.205264 54.0489C0.33604 54.1797 0.513206 54.2535 0.698148 54.2542H3.06111C3.24605 54.2549 3.42322 54.3287 3.554 54.4594C3.68477 54.5902 3.75855 54.7674 3.75926 54.9523V57.3153C3.75997 57.5002 3.83375 57.6774 3.96452 57.8082C4.0953 57.9389 4.27246 58.0127 4.45741 58.0134H22.9315C23.1164 58.0127 23.2936 57.9389 23.4244 57.8082C23.5551 57.6774 23.6289 57.5002 23.6296 57.3153V53.8648C23.6289 53.6799 23.5551 53.5027 23.4244 53.3719C23.2936 53.2412 23.1164 53.1674 22.9315 53.1667H5.53148C5.34654 53.166 5.16937 53.0922 5.0386 52.9614C4.90782 52.8306 4.83404 52.6535 4.83333 52.4685Z" fill="url(#paint0_linear_554_67)"/>
<path d="M40.544 30.0992V27.6288C40.5433 27.4581 40.4752 27.2946 40.3545 27.1739C40.2338 27.0532 40.0703 26.9851 39.8996 26.9844H36.7525C36.6994 26.9842 36.6476 26.9682 36.6035 26.9385C36.5595 26.9088 36.5253 26.8668 36.5051 26.8176C36.485 26.7685 36.4799 26.7144 36.4905 26.6624C36.5011 26.6104 36.5269 26.5626 36.5646 26.5252L38.0495 25.0403C38.1093 24.9803 38.1566 24.9091 38.1889 24.8308C38.2211 24.7525 38.2376 24.6685 38.2374 24.5838V18.8725C38.2367 18.7018 38.1686 18.5382 38.0479 18.4175C37.9272 18.2968 37.7637 18.2287 37.593 18.228H35.1226C34.9519 18.2273 34.7884 18.1592 34.6677 18.0385C34.547 17.9178 34.4789 17.7543 34.4782 17.5836V15.1132C34.4775 14.9425 34.4093 14.779 34.2886 14.6583C34.1679 14.5376 34.0044 14.4695 33.8337 14.4688H20.0131C19.8424 14.4695 19.6789 14.5376 19.5582 14.6583C19.4375 14.779 19.3693 14.9425 19.3686 15.1132V17.5836C19.3679 17.7543 19.2998 17.9178 19.1791 18.0385C19.0584 18.1592 18.8949 18.2273 18.7242 18.228H16.2538C16.0831 18.2287 15.9196 18.2968 15.7989 18.4175C15.6782 18.5382 15.6101 18.7018 15.6094 18.8725V39.1241C15.6101 39.2948 15.6782 39.4583 15.7989 39.579C15.9196 39.6997 16.0831 39.7679 16.2538 39.7686H18.7242C18.8949 39.7693 19.0584 39.8374 19.1791 39.9581C19.2998 40.0788 19.3679 40.2423 19.3686 40.413V42.8834C19.3693 43.0541 19.4375 43.2176 19.5582 43.3383C19.6789 43.459 19.8424 43.5271 20.0131 43.5278H37.8588C37.9435 43.528 38.0274 43.5115 38.1058 43.4793C38.1841 43.447 38.2553 43.3997 38.3153 43.3399L44.0992 37.556C44.159 37.496 44.2064 37.4248 44.2386 37.3464C44.2709 37.2681 44.2874 37.1842 44.2872 37.0995V31.3881C44.2864 31.2174 44.2183 31.0539 44.0976 30.9332C43.9769 30.8125 43.8134 30.7444 43.6427 30.7437H41.1723C41.0044 30.7388 40.845 30.6688 40.7278 30.5486C40.6105 30.4283 40.5446 30.2672 40.544 30.0992ZM20.8213 18.7113H33.0255C33.1962 18.712 33.3597 18.7802 33.4804 18.9009C33.6011 19.0216 33.6692 19.1851 33.6699 19.3558V26.1278C33.6692 26.2985 33.6011 26.462 33.4804 26.5827C33.3597 26.7034 33.1962 26.7716 33.0255 26.7723H20.8213C20.6506 26.7716 20.4871 26.7034 20.3664 26.5827C20.2457 26.462 20.1776 26.2985 20.1769 26.1278V19.3558C20.1776 19.1851 20.2457 19.0216 20.3664 18.9009C20.4871 18.7802 20.6506 18.712 20.8213 18.7113ZM39.2981 39.5188H20.6038C20.4331 39.5181 20.2696 39.45 20.1489 39.3293C20.0282 39.2086 19.9601 39.0451 19.9594 38.8744V31.6647C19.9601 31.494 20.0282 31.3305 20.1489 31.2098C20.2696 31.0891 20.4331 31.0209 20.6038 31.0202H39.2981C39.4688 31.0209 39.6323 31.0891 39.753 31.2098C39.8737 31.3305 39.9418 31.494 39.9425 31.6647V38.8744C39.9418 39.0451 39.8737 39.2086 39.753 39.3293C39.6323 39.45 39.4688 39.5181 39.2981 39.5188Z" fill="url(#paint1_linear_554_67)"/>
</g>
<path d="M75.752 37V20.08H80.24C84.368 20.08 86.744 20.896 86.744 24.232C86.744 26.68 85.112 27.688 83.36 27.808V28.384C85.952 28.432 87.992 29.488 87.992 32.512C87.992 35.92 85.424 37 81.32 37H75.752ZM77.72 27.352H80.312C83.072 27.352 84.776 26.944 84.776 24.544C84.776 21.928 83.072 21.76 80.312 21.76H77.72V27.352ZM77.72 35.32H81.392C84.272 35.32 86.024 34.84 86.024 32.176C86.024 29.704 84.272 29.032 81.392 29.032H77.72V35.32ZM102.542 37L100.406 30.376H93.6142L91.5022 37H89.5342L95.0062 20.08H99.0382L104.486 37H102.542ZM94.1662 28.696H99.8782L97.2862 20.632H96.7342L94.1662 28.696ZM119.544 32.728C119.544 35.248 118.032 37.24 113.04 37.24C107.136 37.24 105.384 34.624 105.384 30.664H107.352C107.352 34.672 109.488 35.56 113.04 35.56C115.92 35.56 117.576 34.864 117.576 32.824C117.576 30.256 114.6 29.728 111.912 28.936C108.576 27.928 106.152 27.016 106.152 24.016C106.152 21.424 107.976 19.84 112.152 19.84C117.144 19.84 118.848 22.888 118.848 25.648H116.88C116.88 22.768 114.744 21.52 112.152 21.52C109.824 21.52 108.12 22.096 108.12 23.968C108.12 25.744 109.608 26.392 112.392 27.256C115.704 28.288 119.544 29.2 119.544 32.728Z" fill="white"/>
<defs>
<linearGradient id="paint0_linear_554_67" x1="0" y1="58.0134" x2="59.9186" y2="55.9591" gradientUnits="userSpaceOnUse">
<stop stop-color="#3050FB"/>
<stop offset="0.5" stop-color="#41FFC2"/>
<stop offset="1" stop-color="#2EDCF9"/>
</linearGradient>
<linearGradient id="paint1_linear_554_67" x1="0.49768" y1="57.4983" x2="59.2702" y2="56.1545" gradientUnits="userSpaceOnUse">
<stop stop-color="#3050FB"/>
<stop offset="0.5" stop-color="#41FFC2"/>
<stop offset="1" stop-color="#2EDCF9"/>
</linearGradient>
<clipPath id="clip0_554_67">
<rect width="58" height="58" fill="white"/>
</clipPath>
</defs>
</svg>
