<svg width="297" height="58" viewBox="0 0 297 58" fill="none" xmlns="http://www.w3.org/2000/svg">
<path d="M71.606 37V21.49H81.77V23.03H73.41V29.212L80.736 28.772V30.334L73.41 30.774V37H71.606ZM86.441 24.328C85.539 24.328 84.857 23.668 84.857 22.788C84.857 21.952 85.539 21.27 86.441 21.27C87.321 21.27 88.025 21.952 88.025 22.788C88.025 23.668 87.321 24.328 86.441 24.328ZM82.789 37V35.46H85.869V27.408L83.603 27.606V26.066L86.133 25.846C87.167 25.758 87.563 26.33 87.563 27.166V35.46H90.643V37H82.789ZM98.6605 27.386C96.3505 27.386 94.7225 29.212 94.7225 32.16V37H92.9185V26.066H94.7225V27.958L94.4365 29.212H94.9425C95.3825 27.232 96.7685 25.846 99.1445 25.846C101.609 25.846 103.215 27.276 103.215 30.312V37H101.433V30.554C101.433 28.266 100.531 27.386 98.6605 27.386ZM117.357 26.066H118.325V27.606H117.401C116.785 27.606 116.389 27.738 115.971 28.046C116.433 28.618 116.719 29.41 116.719 30.356C116.719 32.71 114.871 34.184 111.571 35.394C114.123 34.976 116.587 35.328 116.587 37.748C116.587 40.652 113.595 41.026 106.269 41.026V39.486C112.539 39.486 114.783 39.332 114.783 37.616C114.783 35.196 109.965 36.362 107.259 37.176L106.885 35.922C108.645 35.438 110.383 34.932 112.077 34.404V33.898C108.557 34.8 105.477 33.656 105.477 30.268C105.477 27.254 107.941 25.846 111.087 25.846C112.407 25.846 113.771 26.176 114.805 26.902C115.949 26.176 116.367 26.066 117.357 26.066ZM111.109 33.26C113.419 33.26 114.915 32.446 114.915 30.312C114.915 28.2 113.419 27.386 111.109 27.386C108.821 27.386 107.281 28.2 107.281 30.312C107.281 32.446 108.821 33.26 111.109 33.26ZM119.57 31.39C119.57 27.87 121.77 25.846 124.872 25.846C127.952 25.846 129.976 27.804 129.976 31.17V31.874H121.33C121.44 33.942 122.43 35.724 125.136 35.724C126.94 35.724 128.15 34.844 128.546 33.172H130.35C129.932 34.866 128.612 37.22 125.136 37.22C121.22 37.22 119.57 34.536 119.57 31.39ZM121.33 30.51H128.216C128.216 28.75 127.05 27.364 124.872 27.364C122.716 27.364 121.33 28.75 121.33 30.51ZM132.836 37V27.364C132.836 26.33 133.32 25.824 134.354 25.868L140.426 26.066V27.606L134.64 27.408V37H132.836ZM142.547 26.066H144.351V27.672L144.065 28.926H144.571C145.033 27.21 146.485 25.846 148.993 25.846C152.161 25.846 154.207 28.288 154.207 31.544C154.207 34.778 152.161 37.22 148.993 37.22C146.485 37.22 145.033 35.856 144.571 34.162H144.065L144.351 35.394V41.004H142.547V26.066ZM144.351 31.544C144.351 34.448 146.221 35.68 148.465 35.68C150.731 35.68 152.403 34.404 152.403 31.544C152.403 28.662 150.731 27.386 148.465 27.386C146.221 27.386 144.351 28.618 144.351 31.544ZM156.706 37V27.364C156.706 26.33 157.19 25.824 158.224 25.868L164.296 26.066V27.606L158.51 27.408V37H156.706ZM169.629 24.328C168.727 24.328 168.045 23.668 168.045 22.788C168.045 21.952 168.727 21.27 169.629 21.27C170.509 21.27 171.213 21.952 171.213 22.788C171.213 23.668 170.509 24.328 169.629 24.328ZM165.977 37V35.46H169.057V27.408L166.791 27.606V26.066L169.321 25.846C170.355 25.758 170.751 26.33 170.751 27.166V35.46H173.831V37H165.977ZM181.848 27.386C179.538 27.386 177.91 29.212 177.91 32.16V37H176.106V26.066H177.91V27.958L177.624 29.212H178.13C178.57 27.232 179.956 25.846 182.332 25.846C184.796 25.846 186.402 27.276 186.402 30.312V37H184.62V30.554C184.62 28.266 183.718 27.386 181.848 27.386ZM192.313 35.702L196.163 35.46V37L192.027 37.22C190.993 37.286 190.531 36.736 190.531 35.724V27.606H188.111V26.066H190.531V23.25L192.313 22.7V26.066H195.723V27.606H192.313V35.702ZM211.049 33.084C211.049 35.394 209.663 37.22 205.087 37.22C199.675 37.22 198.069 34.822 198.069 31.192H199.873C199.873 34.866 201.831 35.68 205.087 35.68C207.727 35.68 209.245 35.042 209.245 33.172C209.245 30.818 206.517 30.334 204.053 29.608C200.995 28.684 198.773 27.848 198.773 25.098C198.773 22.722 200.445 21.27 204.273 21.27C208.849 21.27 210.411 24.064 210.411 26.594H208.607C208.607 23.954 206.649 22.81 204.273 22.81C202.139 22.81 200.577 23.338 200.577 25.054C200.577 26.682 201.941 27.276 204.493 28.068C207.529 29.014 211.049 29.85 211.049 33.084ZM212.281 26.066H213.997L216.637 36.494H217.165L219.365 26.066H223.083L225.305 36.494H225.811L228.473 26.066H230.167L227.395 37H223.721L221.499 26.594H220.971L218.749 37H215.053L212.281 26.066ZM235.134 24.328C234.232 24.328 233.55 23.668 233.55 22.788C233.55 21.952 234.232 21.27 235.134 21.27C236.014 21.27 236.718 21.952 236.718 22.788C236.718 23.668 236.014 24.328 235.134 24.328ZM231.482 37V35.46H234.562V27.408L232.296 27.606V26.066L234.826 25.846C235.86 25.758 236.256 26.33 236.256 27.166V35.46H239.336V37H231.482ZM243.618 35.702L247.468 35.46V37L243.332 37.22C242.298 37.286 241.836 36.736 241.836 35.724V27.606H239.416V26.066H241.836V23.25L243.618 22.7V26.066H247.028V27.606H243.618V35.702ZM248.928 31.522C248.928 28.376 250.974 25.846 254.516 25.846C256.628 25.846 259.334 27.034 259.62 30.202H257.794C257.486 28.112 256.1 27.386 254.516 27.386C251.92 27.386 250.732 29.278 250.732 31.522C250.732 33.788 251.92 35.68 254.516 35.68C256.1 35.68 257.486 34.954 257.794 32.864H259.62C259.334 36.032 256.628 37.22 254.516 37.22C250.974 37.22 248.928 34.69 248.928 31.522ZM268.463 25.846C270.927 25.846 272.533 27.276 272.533 30.312V37H270.751V30.554C270.751 28.266 269.849 27.386 267.979 27.386C265.669 27.386 264.041 29.212 264.041 32.16V37H262.237V20.83H264.041V27.958L263.755 29.212H264.261C264.701 27.232 266.087 25.846 268.463 25.846ZM275.01 31.39C275.01 27.87 277.21 25.846 280.312 25.846C283.392 25.846 285.416 27.804 285.416 31.17V31.874H276.77C276.88 33.942 277.87 35.724 280.576 35.724C282.38 35.724 283.59 34.844 283.986 33.172H285.79C285.372 34.866 284.052 37.22 280.576 37.22C276.66 37.22 275.01 34.536 275.01 31.39ZM276.77 30.51H283.656C283.656 28.75 282.49 27.364 280.312 27.364C278.156 27.364 276.77 28.75 276.77 30.51ZM288.276 37V27.364C288.276 26.33 288.76 25.824 289.794 25.868L295.866 26.066V27.606L290.08 27.408V37H288.276Z" fill="#1C1818"/>
<rect x="1" y="1" width="56" height="56" rx="5" fill="#FF7120"/>
<path fill-rule="evenodd" clip-rule="evenodd" d="M24.7547 4H8.48113H6.35849C5.05594 4 4 5.05594 4 6.35849V8.48113V24.7547H5.88679V8.48113C5.88679 7.04833 7.04833 5.88679 8.48113 5.88679H24.7547V4ZM33.0094 5.88679V4H49.5189H51.6415C52.9441 4 54 5.05594 54 6.35849V8.48113V24.7547H52.1132V8.48113C52.1132 7.04833 50.9517 5.88679 49.5189 5.88679H33.0094ZM33.0094 52.1132H49.5189C50.9517 52.1132 52.1132 50.9517 52.1132 49.5189V33.0094H54V49.5189V51.6415C54 52.9441 52.9441 54 51.6415 54H49.5189H33.0094V52.1132ZM5.88679 33.0094V49.5189C5.88679 50.9517 7.04833 52.1132 8.48113 52.1132H24.7547V54H8.48113H6.35849C5.05594 54 4 52.9441 4 51.6415V49.5189V33.0094H5.88679Z" fill="#FAF8F2"/>
<path d="M17 14H31.8981C37.6115 14 41.0064 16.8431 41.0064 21.514C41.0064 24.479 38.8949 27.1597 35.2516 27.6877L35.3344 27.7689C39.5159 28.2563 42 31.2619 42 34.8768C42 40.1162 37.8599 43 31.8981 43H17V14ZM18.5737 27.1597H31.8981C36.328 27.1597 39.1847 24.9664 39.1847 21.1891C39.1847 17.4118 36.2866 15.5434 31.6497 15.5434H18.5737V27.1597ZM18.5737 41.4566H31.8981C36.8249 41.4566 40.1783 39.2633 40.1783 34.8768C40.1783 30.7745 36.8663 28.7031 31.8981 28.7031H18.5737V41.4566Z" fill="#FAF8F2"/>
</svg>
