<svg width="208" height="247" viewBox="0 0 208 247" fill="none" xmlns="http://www.w3.org/2000/svg">
<mask id="path-1-inside-1_549_4701" fill="white">
<path fill-rule="evenodd" clip-rule="evenodd" d="M201.104 69.7318C204.912 69.7318 208 72.8194 208 76.6283L208 98.2094C208 102.018 204.912 105.106 201.104 105.106L179.522 105.106C175.714 105.106 172.626 102.018 172.626 98.2094L172.626 78.0432C172.626 74.2344 169.538 71.1467 165.729 71.1467L145.563 71.1467C141.754 71.1467 138.667 74.2344 138.667 78.0432L138.667 106.521L138.667 141.895L138.667 177.269L138.667 205.747C138.667 209.556 135.579 212.643 131.77 212.643L111.604 212.643C107.795 212.643 104.707 215.731 104.707 219.54L104.707 239.706C104.707 243.515 101.62 246.603 97.811 246.603L69.3333 246.603L40.8557 246.603C37.0469 246.603 33.9592 243.515 33.9592 239.706L33.9592 219.54C33.9592 215.731 30.8715 212.643 27.0627 212.643L6.89651 212.643C3.08767 212.643 9.14255e-06 209.556 8.97606e-06 205.747L7.73127e-06 177.269L6.48647e-06 148.792C6.31998e-06 144.983 3.08767 141.895 6.89651 141.895L27.0627 141.895C30.8715 141.895 33.9592 138.807 33.9592 134.999L33.9592 114.832C33.9592 111.024 37.0468 107.936 40.8557 107.936L62.4368 107.936C66.2457 107.936 69.3333 111.024 69.3333 114.832L69.3333 136.414C69.3333 140.222 66.2457 143.31 62.4368 143.31L42.2707 143.31C38.4618 143.31 35.3742 146.398 35.3742 150.207L35.3742 177.269L35.3742 204.332C35.3742 208.141 38.4618 211.228 42.2707 211.228L69.3333 211.228L96.396 211.228C100.205 211.228 103.293 208.141 103.293 204.332L103.293 177.269L103.293 141.895L103.293 106.521L103.293 71.1467L103.293 35.7726L103.293 7.29494C103.293 3.48611 106.38 0.398442 110.189 0.398442L131.77 0.398441C135.579 0.398441 138.667 3.48611 138.667 7.29494L138.667 28.8761C138.667 32.6849 141.754 35.7726 145.563 35.7726L167.144 35.7726C170.953 35.7726 174.041 38.8603 174.041 42.6691L174.041 62.8353C174.041 66.6441 177.128 69.7318 180.937 69.7318L201.104 69.7318Z"/>
</mask>
<path fill-rule="evenodd" clip-rule="evenodd" d="M201.104 69.7318C204.912 69.7318 208 72.8194 208 76.6283L208 98.2094C208 102.018 204.912 105.106 201.104 105.106L179.522 105.106C175.714 105.106 172.626 102.018 172.626 98.2094L172.626 78.0432C172.626 74.2344 169.538 71.1467 165.729 71.1467L145.563 71.1467C141.754 71.1467 138.667 74.2344 138.667 78.0432L138.667 106.521L138.667 141.895L138.667 177.269L138.667 205.747C138.667 209.556 135.579 212.643 131.77 212.643L111.604 212.643C107.795 212.643 104.707 215.731 104.707 219.54L104.707 239.706C104.707 243.515 101.62 246.603 97.811 246.603L69.3333 246.603L40.8557 246.603C37.0469 246.603 33.9592 243.515 33.9592 239.706L33.9592 219.54C33.9592 215.731 30.8715 212.643 27.0627 212.643L6.89651 212.643C3.08767 212.643 9.14255e-06 209.556 8.97606e-06 205.747L7.73127e-06 177.269L6.48647e-06 148.792C6.31998e-06 144.983 3.08767 141.895 6.89651 141.895L27.0627 141.895C30.8715 141.895 33.9592 138.807 33.9592 134.999L33.9592 114.832C33.9592 111.024 37.0468 107.936 40.8557 107.936L62.4368 107.936C66.2457 107.936 69.3333 111.024 69.3333 114.832L69.3333 136.414C69.3333 140.222 66.2457 143.31 62.4368 143.31L42.2707 143.31C38.4618 143.31 35.3742 146.398 35.3742 150.207L35.3742 177.269L35.3742 204.332C35.3742 208.141 38.4618 211.228 42.2707 211.228L69.3333 211.228L96.396 211.228C100.205 211.228 103.293 208.141 103.293 204.332L103.293 177.269L103.293 141.895L103.293 106.521L103.293 71.1467L103.293 35.7726L103.293 7.29494C103.293 3.48611 106.38 0.398442 110.189 0.398442L131.77 0.398441C135.579 0.398441 138.667 3.48611 138.667 7.29494L138.667 28.8761C138.667 32.6849 141.754 35.7726 145.563 35.7726L167.144 35.7726C170.953 35.7726 174.041 38.8603 174.041 42.6691L174.041 62.8353C174.041 66.6441 177.128 69.7318 180.937 69.7318L201.104 69.7318Z" fill="white"/>
<path d="M138.667 106.521L139.667 106.521L138.667 106.521ZM138.667 141.895L137.667 141.895L138.667 141.895ZM69.3333 246.603L69.3333 247.603L69.3333 246.603ZM69.3333 211.228L69.3333 212.228L69.3333 211.228ZM103.293 141.895L102.293 141.895L103.293 141.895ZM103.293 106.521L104.293 106.521L103.293 106.521ZM42.2707 143.31L42.2707 142.31L42.2707 143.31ZM62.4368 107.936L62.4368 108.936L62.4368 107.936ZM40.8557 107.936L40.8557 106.936L40.8557 107.936ZM33.9592 219.54L32.9592 219.54L33.9592 219.54ZM96.396 211.228L96.396 210.228L96.396 211.228ZM40.8557 246.603L40.8557 247.603L40.8557 246.603ZM33.9592 239.706L34.9592 239.706L33.9592 239.706ZM42.2707 211.228L42.2707 212.228L42.2707 211.228ZM209 98.2094L209 76.6283L207 76.6283L207 98.2094L209 98.2094ZM179.522 106.106L201.104 106.106L201.104 104.106L179.522 104.106L179.522 106.106ZM171.626 78.0432L171.626 98.2094L173.626 98.2094L173.626 78.0432L171.626 78.0432ZM145.563 72.1467L165.729 72.1467L165.729 70.1467L145.563 70.1467L145.563 72.1467ZM139.667 106.521L139.667 78.0432L137.667 78.0432L137.667 106.521L139.667 106.521ZM139.667 141.895L139.667 106.521L137.667 106.521L137.667 141.895L139.667 141.895ZM139.667 177.269L139.667 141.895L137.667 141.895L137.667 177.269L139.667 177.269ZM139.667 205.747L139.667 177.269L137.667 177.269L137.667 205.747L139.667 205.747ZM111.604 213.643L131.77 213.643L131.77 211.643L111.604 211.643L111.604 213.643ZM105.707 239.706L105.707 219.54L103.707 219.54L103.707 239.706L105.707 239.706ZM69.3333 247.603L97.811 247.603L97.811 245.603L69.3333 245.603L69.3333 247.603ZM40.8557 247.603L69.3333 247.603L69.3333 245.603L40.8557 245.603L40.8557 247.603ZM32.9592 219.54L32.9592 239.706L34.9592 239.706L34.9592 219.54L32.9592 219.54ZM6.89651 213.643L27.0627 213.643L27.0627 211.643L6.89651 211.643L6.89651 213.643ZM-0.999992 177.269L-0.999991 205.747L1.00001 205.747L1.00001 177.269L-0.999992 177.269ZM-0.999994 148.792L-0.999992 177.269L1.00001 177.269L1.00001 148.792L-0.999994 148.792ZM27.0627 140.895L6.89651 140.895L6.89651 142.895L27.0627 142.895L27.0627 140.895ZM34.9592 134.999L34.9592 114.832L32.9592 114.832L32.9592 134.999L34.9592 134.999ZM40.8557 108.936L62.4368 108.936L62.4368 106.936L40.8557 106.936L40.8557 108.936ZM68.3333 114.832L68.3333 136.414L70.3333 136.414L70.3333 114.832L68.3333 114.832ZM62.4368 142.31L42.2707 142.31L42.2707 144.31L62.4368 144.31L62.4368 142.31ZM36.3742 177.269L36.3742 150.207L34.3742 150.207L34.3742 177.269L36.3742 177.269ZM36.3742 204.332L36.3742 177.269L34.3742 177.269L34.3742 204.332L36.3742 204.332ZM69.3333 210.228L42.2707 210.228L42.2707 212.228L69.3333 212.228L69.3333 210.228ZM96.396 210.228L69.3333 210.228L69.3333 212.228L96.396 212.228L96.396 210.228ZM102.293 177.269L102.293 204.332L104.293 204.332L104.293 177.269L102.293 177.269ZM102.293 141.895L102.293 177.269L104.293 177.269L104.293 141.895L102.293 141.895ZM102.293 106.521L102.293 141.895L104.293 141.895L104.293 106.521L102.293 106.521ZM102.293 71.1467L102.293 106.521L104.293 106.521L104.293 71.1467L102.293 71.1467ZM102.293 35.7726L102.293 71.1467L104.293 71.1467L104.293 35.7726L102.293 35.7726ZM102.293 7.29494L102.293 35.7726L104.293 35.7726L104.293 7.29494L102.293 7.29494ZM131.77 -0.601559L110.189 -0.601558L110.189 1.39844L131.77 1.39844L131.77 -0.601559ZM139.667 28.8761L139.667 7.29494L137.667 7.29494L137.667 28.8761L139.667 28.8761ZM167.144 34.7726L145.563 34.7726L145.563 36.7726L167.144 36.7726L167.144 34.7726ZM175.041 62.8353L175.041 42.6691L173.041 42.6691L173.041 62.8353L175.041 62.8353ZM201.104 68.7318L180.937 68.7318L180.937 70.7318L201.104 70.7318L201.104 68.7318ZM173.041 62.8353C173.041 67.1964 176.576 70.7318 180.937 70.7318L180.937 68.7318C177.681 68.7318 175.041 66.0918 175.041 62.8353L173.041 62.8353ZM167.144 36.7726C170.401 36.7726 173.041 39.4125 173.041 42.6691L175.041 42.6691C175.041 38.308 171.505 34.7726 167.144 34.7726L167.144 36.7726ZM42.2707 142.31C37.9095 142.31 34.3742 145.845 34.3742 150.207L36.3742 150.207C36.3742 146.95 39.0141 144.31 42.2707 144.31L42.2707 142.31ZM68.3333 136.414C68.3333 139.67 65.6934 142.31 62.4368 142.31L62.4368 144.31C66.7979 144.31 70.3333 140.775 70.3333 136.414L68.3333 136.414ZM62.4368 108.936C65.6934 108.936 68.3333 111.576 68.3333 114.832L70.3333 114.832C70.3333 110.471 66.7979 106.936 62.4368 106.936L62.4368 108.936ZM34.9592 114.832C34.9592 111.576 37.5991 108.936 40.8557 108.936L40.8557 106.936C36.4946 106.936 32.9592 110.471 32.9592 114.832L34.9592 114.832ZM27.0627 142.895C31.4238 142.895 34.9592 139.36 34.9592 134.999L32.9592 134.999C32.9592 138.255 30.3192 140.895 27.0627 140.895L27.0627 142.895ZM1.00001 148.792C1.00001 145.535 3.63996 142.895 6.89651 142.895L6.89651 140.895C2.53539 140.895 -0.999994 144.43 -0.999994 148.792L1.00001 148.792ZM137.667 28.8761C137.667 33.2372 141.202 36.7726 145.563 36.7726L145.563 34.7726C142.307 34.7726 139.667 32.1326 139.667 28.8761L137.667 28.8761ZM103.707 239.706C103.707 242.963 101.068 245.603 97.811 245.603L97.811 247.603C102.172 247.603 105.707 244.067 105.707 239.706L103.707 239.706ZM131.77 1.39844C135.027 1.39844 137.667 4.03839 137.667 7.29494L139.667 7.29494C139.667 2.93382 136.131 -0.601559 131.77 -0.601559L131.77 1.39844ZM111.604 211.643C107.243 211.643 103.707 215.179 103.707 219.54L105.707 219.54C105.707 216.283 108.347 213.643 111.604 213.643L111.604 211.643ZM104.293 7.29494C104.293 4.03839 106.932 1.39844 110.189 1.39844L110.189 -0.601558C105.828 -0.601558 102.293 2.93383 102.293 7.29494L104.293 7.29494ZM137.667 205.747C137.667 209.003 135.027 211.643 131.77 211.643L131.77 213.643C136.131 213.643 139.667 210.108 139.667 205.747L137.667 205.747ZM145.563 70.1467C141.202 70.1467 137.667 73.6821 137.667 78.0432L139.667 78.0432C139.667 74.7867 142.307 72.1467 145.563 72.1467L145.563 70.1467ZM6.89651 211.643C3.63996 211.643 1.00001 209.003 1.00001 205.747L-0.999991 205.747C-0.999991 210.108 2.53539 213.643 6.89651 213.643L6.89651 211.643ZM173.626 78.0432C173.626 73.6821 170.09 70.1467 165.729 70.1467L165.729 72.1467C168.986 72.1467 171.626 74.7867 171.626 78.0432L173.626 78.0432ZM34.9592 219.54C34.9592 215.179 31.4238 211.643 27.0627 211.643L27.0627 213.643C30.3192 213.643 32.9592 216.283 32.9592 219.54L34.9592 219.54ZM96.396 212.228C100.757 212.228 104.293 208.693 104.293 204.332L102.293 204.332C102.293 207.588 99.6526 210.228 96.396 210.228L96.396 212.228ZM179.522 104.106C176.266 104.106 173.626 101.466 173.626 98.2094L171.626 98.2094C171.626 102.571 175.161 106.106 179.522 106.106L179.522 104.106ZM40.8557 245.603C37.5991 245.603 34.9592 242.963 34.9592 239.706L32.9592 239.706C32.9592 244.067 36.4946 247.603 40.8557 247.603L40.8557 245.603ZM209 76.6283C209 72.2672 205.465 68.7318 201.104 68.7318L201.104 70.7318C204.36 70.7318 207 73.3717 207 76.6283L209 76.6283ZM34.3742 204.332C34.3742 208.693 37.9095 212.228 42.2707 212.228L42.2707 210.228C39.0141 210.228 36.3742 207.588 36.3742 204.332L34.3742 204.332ZM207 98.2094C207 101.466 204.36 104.106 201.104 104.106L201.104 106.106C205.465 106.106 209 102.571 209 98.2094L207 98.2094Z" fill="url(#paint0_linear_549_4701)" mask="url(#path-1-inside-1_549_4701)"/>
<defs>
<linearGradient id="paint0_linear_549_4701" x1="1.60685e-05" y1="246.603" x2="207.804" y2="71.0437" gradientUnits="userSpaceOnUse">
<stop stop-color="#3050FB"/>
<stop offset="0.240882" stop-color="#41FFC2"/>
<stop offset="0.489777" stop-color="#272C30"/>
<stop offset="0.747712" stop-color="#272C30"/>
<stop offset="1" stop-color="#2EDCF9"/>
</linearGradient>
</defs>
</svg>
