<svg width="2025" height="1430" viewBox="0 0 2025 1430" fill="none" xmlns="http://www.w3.org/2000/svg">
<g clip-path="url(#clip0_577_207)">
<line x1="-21" y1="79.5" x2="2155" y2="79.5" stroke="#272C30"/>
<line x1="-21" y1="159.5" x2="2155" y2="159.5" stroke="#272C30"/>
<line x1="-21" y1="239.5" x2="2155" y2="239.5" stroke="#272C30"/>
<line x1="-21" y1="319.5" x2="2155" y2="319.5" stroke="#272C30"/>
<line x1="-21" y1="399.5" x2="2155" y2="399.5" stroke="#272C30"/>
<line x1="-21" y1="479.5" x2="2155" y2="479.5" stroke="#272C30"/>
<line x1="-21" y1="559.5" x2="2155" y2="559.5" stroke="#272C30"/>
<line x1="-21" y1="639.5" x2="2155" y2="639.5" stroke="#272C30"/>
<line x1="-21" y1="719.5" x2="2155" y2="719.5" stroke="#272C30"/>
<line x1="-21" y1="799.5" x2="2155" y2="799.5" stroke="#272C30"/>
<line x1="-21" y1="879.5" x2="2155" y2="879.5" stroke="#272C30"/>
<line x1="-21" y1="959.5" x2="2155" y2="959.5" stroke="#272C30"/>
<line x1="-21" y1="1039.5" x2="2155" y2="1039.5" stroke="#272C30"/>
<line x1="-21" y1="1119.5" x2="2155" y2="1119.5" stroke="#272C30"/>
<line x1="-21" y1="1199.5" x2="2155" y2="1199.5" stroke="#272C30"/>
<line x1="-21" y1="1279.5" x2="2155" y2="1279.5" stroke="#272C30"/>
<line x1="-21" y1="1359.5" x2="2155" y2="1359.5" stroke="#272C30"/>
<line x1="80" y1="1430" x2="79.9999" y2="-19.9999" stroke="#272C30"/>
<line x1="161" y1="1430" x2="161" y2="-19.9999" stroke="#272C30"/>
<line x1="242" y1="1430" x2="242" y2="-19.9999" stroke="#272C30"/>
<line x1="323" y1="1430" x2="323" y2="-19.9999" stroke="#272C30"/>
<line x1="404" y1="1430" x2="404" y2="-19.9999" stroke="#272C30"/>
<line x1="485" y1="1430" x2="485" y2="-19.9999" stroke="#272C30"/>
<line x1="566" y1="1430" x2="566" y2="-19.9999" stroke="#272C30"/>
<line x1="647" y1="1430" x2="647" y2="-19.9999" stroke="#272C30"/>
<line x1="728" y1="1430" x2="728" y2="-19.9999" stroke="#272C30"/>
<line x1="809" y1="1430" x2="809" y2="-19.9999" stroke="#272C30"/>
<line x1="890" y1="1430" x2="890" y2="-19.9999" stroke="#272C30"/>
<line x1="971" y1="1430" x2="971" y2="-19.9999" stroke="#272C30"/>
<line x1="1052" y1="1430" x2="1052" y2="-19.9999" stroke="#272C30"/>
<line x1="1133" y1="1430" x2="1133" y2="-19.9999" stroke="#272C30"/>
<line x1="1214" y1="1430" x2="1214" y2="-19.9999" stroke="#272C30"/>
<line x1="1295" y1="1430" x2="1295" y2="-19.9999" stroke="#272C30"/>
<line x1="1376" y1="1430" x2="1376" y2="-19.9999" stroke="#272C30"/>
<line x1="1457" y1="1430" x2="1457" y2="-19.9999" stroke="#272C30"/>
<line x1="1538" y1="1430" x2="1538" y2="-19.9999" stroke="#272C30"/>
<line x1="1619" y1="1430" x2="1619" y2="-19.9999" stroke="#272C30"/>
<line x1="1700" y1="1430" x2="1700" y2="-19.9999" stroke="#272C30"/>
<line x1="1781" y1="1430" x2="1781" y2="-19.9999" stroke="#272C30"/>
<line x1="1862" y1="1430" x2="1862" y2="-19.9999" stroke="#272C30"/>
<line x1="1943" y1="1430" x2="1943" y2="-19.9999" stroke="#272C30"/>
<line x1="2024" y1="1430" x2="2024" y2="-19.9999" stroke="#272C30"/>
</g>
<defs>
<clipPath id="clip0_577_207">
<rect width="2025" height="1430" fill="white"/>
</clipPath>
</defs>
</svg>
